<?xml version="1.0" standalone="no"?>
<!DOCTYPE svg PUBLIC "-//W3C//DTD SVG 20010904//EN"
 "http://www.w3.org/TR/2001/REC-SVG-20010904/DTD/svg10.dtd">
<svg version="1.0" xmlns="http://www.w3.org/2000/svg"
 width="4014.000000pt" height="6135.000000pt" viewBox="0 0 4014.000000 6135.000000"
 preserveAspectRatio="xMidYMid meet">

<g transform="translate(0.000000,6135.000000) scale(0.100000,-0.100000)"
fill="#000000" stroke="none">
<path d="M18545 59190 c5 -8 24 -37 43 -65 64 -95 108 -182 268 -543 88 -200
164 -363 167 -363 4 1 59 1 122 1 l114 0 -50 113 c-73 163 -141 288 -206 380
-50 69 -481 519 -458 477z"/>
<path d="M21106 57550 c178 -265 266 -559 266 -885 0 -330 -86 -614 -268 -887
-85 -128 -170 -216 -505 -524 -153 -142 -279 -259 -279 -261 0 -2 60 -169 134
-371 73 -202 143 -405 154 -452 61 -253 63 -492 5 -751 l-26 -119 93 -202 c51
-112 126 -269 167 -351 307 -616 464 -1087 518 -1551 l15 -128 92 -127 c419
-572 907 -1153 1342 -1596 l187 -190 -137 155 c-293 333 -567 670 -851 1048
l-190 253 -12 117 c-25 244 -106 574 -210 855 -74 200 -138 349 -278 642 -69
143 -163 343 -210 445 l-85 185 26 105 c70 290 57 597 -38 875 -25 75 -221
618 -253 701 -2 6 135 140 305 297 170 157 338 318 372 358 174 202 297 459
352 732 32 161 32 424 0 585 -45 221 -119 401 -244 589 -57 86 -115 151 -285
323 l-214 215 57 -85z"/>
<path d="M14240 54867 c163 -162 243 -233 330 -294 125 -88 121 -88 134 -8 l7
40 -268 185 c-147 102 -301 209 -343 238 -68 49 -55 33 140 -161z"/>
<path d="M18210 51482 c-73 -39 -120 -137 -180 -382 -66 -266 -121 -398 -240
-580 -208 -315 -434 -359 -672 -131 -137 130 -244 320 -289 510 -27 111 -45
148 -82 167 -154 80 -560 -331 -1107 -1126 -289 -419 -397 -556 -567 -721
-138 -134 -202 -170 -236 -130 -33 37 -87 248 -87 340 l0 54 -125 -201 c-515
-826 -1041 -1535 -1555 -2097 -132 -144 -461 -473 -584 -583 -81 -73 -77 -78
54 -68 480 36 957 273 1472 733 237 211 535 533 820 885 146 181 184 224 156
178 -106 -175 -234 -411 -523 -960 -260 -494 -436 -819 -533 -980 -263 -438
-698 -1004 -1490 -1939 -736 -867 -802 -949 -802 -983 0 -22 -14 -22 155 3
338 49 635 142 960 301 107 52 128 67 194 136 86 89 144 175 243 357 39 71 82
142 95 156 14 15 49 91 79 170 61 160 106 247 167 328 65 84 187 173 256 187
l33 7 -52 -103 c-40 -80 -49 -105 -38 -111 7 -5 17 -9 22 -9 5 0 -1 -11 -14
-25 l-23 -24 204 -100 c200 -97 204 -99 207 -74 3 21 7 23 31 18 25 -5 29 -2
45 37 17 42 18 43 27 18 32 -79 21 -353 -32 -785 -39 -327 -48 -544 -25 -647
63 -284 306 -343 712 -173 175 74 496 263 463 273 -54 17 -121 104 -153 197
-26 77 -32 198 -12 273 29 113 124 277 156 267 127 -38 436 -137 439 -141 2
-2 0 -51 -5 -109 -5 -58 -7 -104 -4 -103 3 2 53 55 110 118 147 163 308 320
401 394 l80 63 97 -24 c115 -28 604 -126 713 -143 42 -7 82 -15 88 -19 8 -5 8
-24 0 -69 -10 -56 -13 -61 -33 -57 -75 16 -150 25 -156 18 -6 -7 -50 -253 -50
-280 0 -7 9 -13 21 -13 11 0 19 -3 17 -7 -100 -196 -128 -279 -128 -378 0
-205 146 -423 269 -400 98 18 228 133 284 252 31 66 32 71 31 203 0 94 -5 154
-17 196 -21 76 -21 74 2 74 24 0 28 13 36 125 3 50 9 104 12 122 l5 32 72 -36
c302 -152 573 -135 842 55 78 56 189 157 161 148 -51 -16 -157 -28 -206 -23
-146 16 -254 74 -298 160 -23 46 -25 59 -20 132 3 44 15 107 26 140 26 76 152
325 164 325 24 0 152 -98 218 -167 111 -116 212 -280 278 -450 l20 -52 -77
-30 c-82 -33 -81 -33 63 -12 33 5 61 8 63 7 5 -5 23 -118 19 -122 -2 -3 -43
-10 -91 -16 l-86 -12 5 -30 c3 -17 9 -69 15 -116 20 -161 18 -158 45 -152 23
4 24 2 15 -27 -6 -23 -5 -31 4 -31 59 0 433 63 445 75 2 3 -1 11 -7 17 -18 18
-15 35 7 41 18 4 18 10 -10 147 -16 79 -31 146 -34 149 -3 2 -42 -2 -88 -11
-54 -10 -84 -12 -88 -6 -8 12 -22 109 -17 114 2 2 84 19 182 39 222 44 519
118 740 185 l169 51 25 -23 c35 -33 172 -242 225 -345 230 -446 298 -882 190
-1213 -113 -349 -298 -467 -648 -414 -16 3 -37 7 -45 9 -8 2 -28 7 -45 9 -95
17 -263 99 -468 230 -252 160 -331 193 -489 203 -144 9 -252 -15 -386 -88
-159 -85 -298 -209 -613 -544 -315 -336 -718 -738 -825 -822 -98 -77 -246
-174 -309 -202 -51 -23 -139 -52 -170 -58 -16 -2 -50 -8 -75 -13 -53 -10 -110
-6 -205 15 -81 18 -139 48 -169 88 -31 42 -34 169 -6 320 32 177 17 213 -88
205 -138 -10 -459 -210 -902 -562 -226 -179 -218 -174 -410 -304 -258 -174
-563 -349 -710 -406 -25 -10 -58 -24 -75 -31 -34 -15 -152 -52 -199 -62 -56
-11 -160 -9 -201 4 -139 47 -163 232 -60 473 35 83 170 355 185 375 18 24 90
167 90 180 0 11 -9 10 -50 -4 -28 -10 -53 -21 -57 -24 -3 -4 -12 -7 -20 -7
-14 0 -79 -24 -353 -132 -164 -64 -187 -73 -262 -107 -26 -11 -50 -21 -53 -21
-20 0 -224 -109 -288 -154 -129 -91 -447 -319 -698 -501 -129 -95 -240 -175
-247 -179 -19 -12 -505 176 -777 301 -163 75 -375 185 -491 254 -45 27 -86 49
-91 49 -5 0 -16 -13 -26 -29 l-17 -29 112 -65 c62 -35 141 -79 176 -96 34 -17
62 -36 62 -41 0 -6 -11 -33 -25 -60 l-25 -50 -70 35 -69 35 -24 -43 c-68 -118
-117 -210 -117 -217 0 -4 7 -11 16 -14 15 -6 14 -9 -6 -31 l-22 -24 183 -91
184 -91 5 28 c4 21 10 27 26 25 17 -2 26 9 47 55 14 32 41 93 61 136 l36 78
-70 31 c-38 17 -70 35 -70 40 0 10 49 108 54 108 2 0 57 -25 122 -56 65 -30
142 -66 171 -80 53 -25 406 -166 502 -201 l53 -20 -48 -35 c-284 -204 -705
-465 -996 -618 -37 -19 -65 -36 -63 -38 2 -2 57 11 122 28 398 106 798 282
1161 511 l97 61 68 -22 c37 -11 67 -22 67 -24 0 -10 -34 -103 -40 -109 -4 -5
-40 1 -80 13 -39 12 -73 20 -75 18 -1 -2 -23 -65 -48 -142 -43 -130 -45 -138
-27 -143 17 -5 14 -13 -32 -81 -129 -191 -161 -342 -113 -527 11 -40 -522
-729 -839 -1085 -126 -142 -580 -600 -593 -600 -9 1 -170 203 -252 316 l-52
72 -39 -10 -40 -10 37 -52 c20 -28 66 -89 101 -135 35 -45 62 -84 60 -85 -2
-1 -25 -19 -51 -40 -27 -21 -52 -35 -56 -30 -4 5 -24 32 -46 59 -21 28 -42 54
-46 58 -4 5 -59 -31 -124 -79 -100 -75 -116 -91 -111 -110 5 -18 1 -24 -20
-31 l-26 -9 58 -74 c32 -41 93 -119 137 -173 93 -113 93 -101 -2 -219 -107
-133 -211 -187 -376 -196 l-100 -5 -85 -55 c-452 -293 -894 -515 -1370 -687
-167 -60 -221 -88 -202 -107 14 -13 213 -77 333 -107 302 -75 520 -96 908 -87
157 3 315 10 351 15 36 5 66 8 67 7 8 -7 -697 -796 -1578 -1767 -1197 -1319
-1483 -1655 -1514 -1781 -7 -26 -5 -27 65 -48 365 -109 873 -164 1290 -140
262 15 645 66 676 91 6 5 16 26 23 47 20 58 82 143 137 184 48 37 149 79 231
97 l42 9 37 -57 c20 -31 93 -136 161 -234 l125 -178 -58 -75 c-96 -126 -168
-173 -301 -196 -50 -8 -90 -9 -136 -2 l-64 10 -294 -254 c-585 -506 -895 -796
-967 -906 -47 -72 -44 -92 16 -105 78 -16 317 -49 452 -62 159 -15 597 -15
760 0 380 35 746 106 1099 215 63 20 116 34 117 33 3 -3 -158 -218 -835 -1112
-767 -1013 -1961 -2604 -2247 -2995 -626 -854 -974 -1367 -1021 -1506 -8 -25
-13 -47 -10 -50 3 -3 72 -14 153 -24 520 -66 1086 -46 1589 56 355 72 734 197
1058 347 68 32 94 41 88 29 -13 -24 -178 -228 -285 -352 -265 -307 -628 -703
-1215 -1324 -223 -236 -424 -450 -446 -475 -123 -141 384 351 1015 986 937
940 1357 1385 1446 1530 26 43 134 247 239 453 106 206 218 420 250 475 314
545 589 776 844 711 34 -9 64 -16 66 -16 1 0 24 42 50 93 64 126 64 126 117
94 151 -90 295 -265 404 -492 75 -155 75 -152 -17 -186 -91 -33 -211 -59 -274
-59 l-45 0 0 -68 c0 -95 -25 -291 -61 -467 -35 -176 -160 -669 -190 -752 -12
-32 -88 -195 -169 -363 -221 -455 -265 -591 -258 -791 4 -92 8 -113 36 -172
79 -169 269 -282 445 -263 190 20 383 119 627 322 58 49 305 290 550 537 616
622 875 864 1125 1054 343 259 662 392 879 368 223 -25 405 -179 461 -391 21
-77 21 -247 0 -343 -46 -218 -167 -473 -322 -680 -69 -92 -384 -481 -390 -481
-2 0 -140 -31 -306 -69 -1299 -298 -2687 -548 -4050 -731 -142 -19 -159 -19
-173 -5 -21 20 -58 19 -124 -6 -30 -11 -75 -26 -100 -34 -76 -23 -1044 -127
-1680 -180 -167 -14 -307 -29 -310 -33 -3 -4 -16 -20 -30 -36 l-25 -29 78 5
c43 3 79 2 81 -1 2 -3 6 -33 10 -67 l7 -61 -113 -7 c-61 -4 -112 -8 -113 -9
-1 -1 4 -69 9 -152 l11 -150 28 3 c30 4 31 3 17 -32 -12 -32 -21 -31 237 -11
303 24 304 24 293 45 -16 30 -12 40 16 40 19 0 24 4 21 18 -3 9 -8 60 -12 112
-3 52 -8 113 -11 135 l-6 41 -100 -9 c-55 -5 -106 -6 -114 -3 -10 4 -14 23
-14 66 0 33 2 60 5 60 59 0 849 77 1238 121 148 16 273 29 278 27 4 -2 -47
-36 -114 -77 -206 -124 -483 -311 -677 -456 -210 -156 -215 -160 -180 -147 63
24 304 138 388 183 51 27 90 43 85 35 -17 -31 -716 -813 -1248 -1397 l-140
-153 110 75 c61 42 169 116 240 164 290 198 632 437 835 584 282 205 494 409
798 773 44 53 83 94 86 90 3 -3 6 -23 6 -44 0 -36 2 -38 31 -38 26 0 30 -3 24
-17 -15 -41 -35 -143 -41 -213 -8 -88 12 -179 53 -250 63 -107 190 -209 289
-231 47 -11 59 -10 94 6 61 27 153 132 197 222 33 69 38 89 41 169 5 106 -11
165 -78 298 -22 43 -40 80 -40 82 0 1 10 4 23 6 l22 3 -19 152 c-19 143 -21
152 -41 148 -54 -11 -197 -27 -201 -22 -12 12 -17 127 -5 127 54 0 1105 157
1573 235 147 25 273 45 280 45 18 0 40 -120 24 -126 -6 -2 -54 -11 -106 -19
-52 -9 -97 -18 -99 -20 -2 -3 7 -70 20 -151 l23 -146 29 5 c27 4 29 2 23 -25
-3 -15 -2 -28 2 -28 4 0 122 20 262 45 140 25 258 45 263 45 4 0 1 10 -8 23
-17 26 -12 37 17 37 10 0 18 3 18 8 0 18 -50 286 -54 290 -3 2 -45 -3 -93 -12
-134 -24 -129 -26 -140 44 -9 57 -8 61 11 65 12 3 167 32 346 66 398 74 780
150 1175 235 164 35 304 64 311 64 6 0 17 -20 23 -44 20 -81 22 -79 -90 -103
-56 -13 -104 -25 -106 -27 -5 -4 11 -85 42 -223 16 -71 17 -72 45 -67 25 6 27
4 23 -20 -3 -14 -1 -26 3 -26 5 0 125 25 266 56 l257 57 -15 22 c-16 24 -10
35 18 35 22 0 22 -1 3 75 -20 83 -20 83 28 102 70 28 203 100 382 208 94 56
247 145 340 197 l170 95 309 82 c169 45 309 81 311 79 5 -6 36 -120 33 -123
-2 -1 -50 -15 -108 -30 l-106 -28 39 -146 c22 -80 40 -147 42 -149 1 -1 14 2
29 8 27 10 27 10 20 -27 -6 -31 -4 -35 9 -30 9 3 126 36 259 73 134 37 247 71
252 75 6 5 2 17 -9 29 -17 19 -17 20 8 29 l25 10 -40 138 c-22 76 -44 141 -47
145 -4 4 -54 -6 -111 -22 -57 -16 -104 -29 -105 -27 -1 1 -9 28 -18 60 -16 57
-16 58 6 67 12 5 140 43 284 85 315 90 672 199 989 300 128 41 237 75 242 75
5 0 15 -21 21 -47 20 -78 57 -149 104 -200 24 -26 50 -66 57 -88 17 -55 18
-55 43 -46 l23 9 0 -127 c0 -143 16 -215 66 -294 78 -122 242 -218 371 -218
48 0 65 5 94 27 49 37 110 136 133 214 54 187 26 304 -117 483 l-63 77 25 10
25 9 -40 113 c-38 105 -40 115 -30 167 5 30 10 79 10 108 0 53 4 60 42 67 7 2
27 8 43 15 69 28 544 201 553 201 5 0 110 -44 233 -98 123 -54 249 -109 280
-121 l56 -22 -5 -248 c-6 -323 14 -497 66 -561 17 -22 18 -22 65 52 26 40 60
87 76 105 l29 31 243 -93 c317 -121 293 -114 287 -76 -4 28 -2 31 16 25 12 -3
25 -7 29 -8 8 -1 107 263 107 284 0 16 -63 20 -87 5 -59 -39 -194 -22 -307 38
-78 41 -162 125 -193 194 -28 60 -56 204 -51 260 l3 36 210 87 c116 47 231 96
257 108 l48 21 44 -52 c56 -67 103 -140 116 -186 7 -20 13 -42 16 -50 3 -8 22
7 51 40 165 186 402 416 562 545 217 175 499 344 575 344 10 0 16 -17 21 -52
27 -213 108 -336 269 -412 132 -63 268 -72 317 -20 12 13 25 24 29 24 16 0 48
-161 109 -555 53 -340 105 -770 96 -785 -9 -15 -666 167 -1102 305 -166 52
-307 95 -312 95 -6 0 -147 47 -314 105 -167 58 -308 105 -313 105 -5 0 -15
-14 -21 -31 -13 -34 -22 -29 127 -81 498 -174 778 -263 1235 -393 148 -42 270
-77 272 -78 3 -4 -25 -108 -31 -114 -2 -2 -49 7 -103 22 -54 15 -102 28 -106
28 -8 2 -86 -251 -87 -279 0 -7 11 -15 25 -18 24 -6 24 -6 -26 -72 -99 -132
-147 -263 -134 -367 14 -115 73 -237 151 -312 61 -60 92 -71 165 -57 137 25
283 134 344 257 30 60 30 61 30 231 0 169 0 170 21 166 19 -3 24 3 37 50 38
130 59 230 51 238 -5 4 -51 20 -103 34 -51 14 -96 27 -98 30 -9 9 19 107 32
112 7 3 71 -10 142 -28 l128 -34 7 -74 c15 -179 20 -552 9 -728 -18 -278 -43
-451 -97 -657 -14 -55 -29 -113 -33 -130 -32 -125 -115 -310 -207 -462 -116
-191 -249 -333 -361 -386 -116 -54 -277 -47 -407 17 -136 68 -270 205 -340
348 -58 117 -119 378 -146 623 -18 163 -23 465 -11 685 12 213 35 545 47 650
l6 55 -50 -70 c-68 -97 -172 -214 -413 -465 -315 -329 -289 -297 -484 -600
-63 -99 -308 -466 -370 -555 -81 -118 -88 -127 -149 -210 -193 -260 -437 -506
-705 -710 -165 -125 -421 -275 -556 -325 -71 -27 -117 -42 -142 -46 -15 -2
-35 -7 -43 -10 -83 -31 -282 -22 -383 16 -76 29 -114 63 -146 130 -101 214 47
589 514 1300 66 102 124 193 128 203 3 9 -82 -65 -191 -165 -601 -558 -1269
-1146 -2439 -2150 -625 -537 -798 -674 -1068 -843 -190 -119 -479 -256 -594
-281 -14 -3 -28 -7 -33 -10 -10 -7 -160 -44 -203 -50 -126 -20 -154 -24 -186
-24 -50 0 -64 20 -63 89 1 48 38 180 74 266 4 11 18 45 30 75 83 207 284 519
465 722 33 37 49 68 74 148 18 56 35 108 38 117 3 8 -34 -16 -83 -54 -229
-179 -446 -303 -649 -370 -167 -55 -238 -67 -410 -67 -116 0 -123 1 -175 30
-85 48 -118 112 -134 256 -3 27 16 169 30 223 43 170 264 538 552 918 29 37
52 78 52 90 0 85 96 301 223 504 l64 101 -66 -25 c-241 -91 -302 -127 -586
-352 -284 -224 -526 -457 -1118 -1076 -471 -493 -643 -647 -1052 -939 -225
-161 -446 -303 -611 -394 -128 -70 -298 -152 -317 -152 -7 0 -17 -4 -22 -9 -9
-9 -34 -16 -125 -37 -14 -4 -53 -6 -87 -6 -72 -1 -120 22 -143 68 -16 32 -19
132 -6 204 18 103 142 384 301 680 31 58 77 143 102 190 25 47 60 112 78 145
18 33 66 123 108 200 91 167 161 315 153 322 -3 3 -51 -2 -106 -12 -302 -50
-551 -175 -784 -394 -360 -339 -734 -638 -1314 -1055 l-233 -167 -157 41
c-186 48 -436 117 -619 171 -72 22 -139 39 -147 39 -19 0 -86 -31 -86 -40 0
-4 59 -24 131 -46 71 -21 134 -41 140 -44 5 -4 3 -26 -7 -56 -9 -27 -17 -54
-19 -61 -3 -8 -37 -1 -112 22 -59 19 -111 31 -114 27 -4 -4 -26 -67 -49 -141
-42 -136 -42 -150 -2 -151 18 0 15 -14 -9 -36 -20 -18 -20 -18 28 -35 26 -9
154 -47 284 -84 l236 -68 7 -71 c8 -98 -7 -196 -40 -264 -59 -122 -211 -229
-360 -254 -69 -11 -72 -11 -117 15 -41 24 -83 67 -145 147 l-20 24 -55 -42
c-92 -71 -283 -237 -462 -401 -197 -181 -318 -288 -394 -351 l-55 -45 48 -7
c127 -18 414 -40 635 -48 744 -27 1534 70 2280 281 95 28 175 48 177 47 1 -2
-74 -69 -169 -149 -594 -502 -1306 -1010 -2788 -1989 -735 -486 -1320 -877
-1474 -985 -273 -192 -475 -361 -475 -396 0 -23 186 -141 355 -224 304 -150
620 -240 1025 -291 171 -21 701 -30 912 -15 850 61 1612 235 3216 734 166 52
302 92 302 89 0 -9 -177 -198 -390 -415 -360 -367 -865 -845 -1820 -1722 -726
-667 -842 -775 -1065 -999 -175 -176 -239 -255 -222 -272 28 -28 841 -28 1205
1 1333 104 2620 476 3952 1141 316 158 795 424 979 543 75 49 -36 -62 -367
-366 -898 -823 -1302 -1232 -1302 -1318 0 -21 6 -24 57 -31 128 -16 384 17
663 86 685 169 1798 619 3058 1235 171 85 312 152 312 150 0 -2 -66 -95 -147
-207 -188 -259 -480 -696 -606 -906 -162 -270 -247 -460 -233 -518 9 -34 35
-32 266 20 889 201 1841 602 2715 1146 88 55 142 83 146 76 9 -14 79 -428 79
-463 0 -15 -16 -76 -35 -137 -48 -155 -75 -273 -75 -328 0 -27 2 -48 4 -48 2
0 39 7 82 15 55 10 80 12 85 4 3 -6 9 -43 12 -82 4 -40 13 -148 21 -242 128
-1462 60 -3425 -159 -4615 -69 -371 -130 -580 -230 -785 -60 -124 -84 -179
-161 -357 l-33 -78 3828 0 3829 0 -98 224 c-53 123 -113 252 -133 287 -239
434 -432 1785 -488 3429 -13 383 -7 1540 11 1855 38 713 86 1217 165 1742 20
131 38 239 39 241 2 1 53 -55 113 -125 536 -624 1077 -1077 1660 -1392 73 -39
142 -71 153 -71 36 0 65 94 89 295 48 393 62 1227 31 1694 -5 74 -8 136 -7
138 2 1 58 -68 125 -155 416 -541 873 -981 1347 -1297 284 -189 479 -293 754
-400 368 -143 693 -206 1076 -206 316 -1 568 37 864 128 l84 26 -6 71 c-3 39
-22 127 -42 196 -112 384 -484 1290 -764 1860 -39 80 -71 146 -71 148 0 2 62
-50 138 -115 210 -181 358 -305 573 -475 l195 -156 210 -75 c1469 -525 2935
-729 4329 -602 179 17 468 52 498 61 27 8 21 21 -35 81 -110 116 -327 288
-1288 1023 -1685 1288 -2139 1666 -2782 2314 -191 192 -346 351 -345 352 2 2
68 -24 147 -57 320 -134 636 -241 950 -323 255 -67 1034 -227 1415 -290 1237
-207 2120 -159 2925 157 132 52 420 193 420 206 0 11 -139 147 -250 243 -47
40 -283 239 -525 442 -1039 873 -1451 1234 -1935 1697 -113 108 -242 237 -287
286 l-82 90 272 6 c507 12 933 63 1423 172 298 66 743 198 751 222 7 20 -78
131 -210 273 -271 293 -861 851 -2232 2110 -1126 1034 -1904 1756 -1943 1802
-11 14 -2 16 70 20 l81 5 176 -80 c97 -43 285 -126 419 -183 222 -95 246 -104
275 -95 18 6 135 22 262 35 214 23 231 24 248 9 29 -27 96 -172 115 -252 l18
-74 74 -29 c226 -87 583 -198 718 -222 88 -15 3 85 -500 588 -241 241 -437
441 -434 443 2 2 86 13 187 24 240 26 229 23 229 59 0 16 -3 31 -8 33 -4 3
-115 -7 -247 -23 l-240 -28 -45 43 c-204 191 -1214 1157 -1445 1381 -334 324
-899 894 -914 922 -9 17 8 13 117 -25 375 -132 777 -217 1192 -253 150 -13
601 -13 766 0 195 16 420 47 614 86 227 45 213 40 206 76 -33 167 -876 1147
-3025 3518 -1038 1145 -1326 1464 -1338 1480 -10 14 -9 24 4 51 10 19 19 61
21 95 l4 61 70 -14 c247 -46 564 -73 874 -73 337 0 616 26 907 86 152 31 359
84 371 95 16 14 -15 67 -71 124 -135 138 -459 387 -1173 900 -599 431 -976
712 -967 721 2 3 75 -16 161 -41 87 -25 162 -45 167 -45 6 0 -2 15 -16 34
l-26 35 111 218 112 218 45 8 c58 10 210 -16 280 -48 153 -69 271 -266 261
-435 -3 -65 -6 -72 -43 -110 -28 -28 -34 -41 -24 -44 27 -9 333 -26 478 -26
365 0 753 53 1101 151 141 40 352 111 379 128 74 47 -247 373 -1604 1626 -297
274 -652 603 -788 729 -136 127 -252 232 -256 234 -5 2 -37 -27 -72 -64 -97
-101 -213 -174 -369 -231 -72 -27 -144 -49 -172 -54 -4 0 -31 -7 -60 -15 -29
-8 -82 -19 -118 -24 -36 -5 -76 -12 -90 -15 -30 -5 -105 -13 -220 -22 -173
-14 -803 -6 -985 12 -22 2 -85 6 -140 10 -55 3 -120 7 -145 10 -85 7 -211 15
-313 20 -56 2 -150 7 -209 11 l-107 6 106 105 105 105 -33 20 c-165 100 -250
253 -250 453 -1 218 62 390 185 503 l42 39 -23 29 c-45 55 -211 309 -278 426
l-68 118 79 82 c44 46 135 145 203 220 l124 138 48 -41 49 -41 -51 -59 c-28
-33 -55 -61 -60 -64 -4 -3 36 -45 89 -93 134 -120 129 -117 147 -102 9 7 17
11 18 9 2 -2 25 -39 52 -83 60 -98 147 -191 217 -233 156 -95 417 -94 447 1
20 64 22 103 7 176 -37 178 -137 301 -316 387 -58 28 -113 53 -123 56 -15 6
-15 10 -5 26 10 17 8 23 -18 44 -141 118 -200 167 -204 167 -3 0 -29 -29 -59
-65 -58 -70 -56 -70 -115 -17 l-37 33 98 117 c228 269 550 690 718 934 44 65
84 117 88 118 4 0 30 -15 57 -33 l50 -34 -49 -71 -50 -72 32 -23 c86 -64 208
-147 215 -147 4 1 25 26 46 58 21 31 81 119 133 195 52 75 93 142 91 147 -2 6
-59 46 -128 90 l-124 79 -49 -74 -49 -74 -53 35 -53 36 82 126 c90 139 166
264 166 275 0 3 -14 13 -30 22 l-30 16 -28 -47 c-263 -444 -736 -1089 -1178
-1606 -136 -160 -423 -477 -463 -513 -28 -24 -7 -56 -181 281 l-135 261 -37
-31 c-20 -17 -74 -46 -120 -65 -118 -49 -397 -186 -573 -282 -191 -104 -316
-187 -430 -284 -156 -132 -234 -193 -255 -200 -25 -8 -28 -2 40 -98 146 -207
336 -552 388 -705 l20 -61 -141 -109 c-78 -60 -148 -112 -155 -116 -6 -4 -67
15 -135 43 -173 70 -273 95 -382 95 -96 0 -130 -11 -172 -56 -49 -52 -55 -87
-60 -343 -2 -132 -6 -245 -8 -251 -4 -14 -279 -178 -500 -299 -186 -102 -596
-307 -705 -351 -294 -121 -518 -209 -655 -258 -158 -55 -461 -150 -561 -176
l-52 -13 -83 65 c-46 36 -165 150 -264 253 -222 232 -331 323 -455 379 -295
134 -553 25 -799 -339 -26 -38 -100 -161 -163 -271 -64 -111 -142 -241 -173
-289 l-56 -88 -407 6 c-224 3 -474 11 -557 17 -194 14 -558 49 -563 55 -2 2
-17 50 -32 107 -15 57 -30 110 -34 118 -3 8 -7 29 -10 45 -17 110 -59 281 -84
340 -51 126 -53 125 -492 -263 -96 -86 -187 -166 -202 -180 -26 -24 -29 -24
-90 -13 -369 72 -972 247 -1403 408 -210 79 -581 235 -597 251 -11 11 8 33
386 457 138 154 280 314 317 355 52 60 79 102 129 210 385 825 653 1264 1014
1663 143 157 228 194 261 113 42 -99 43 -318 4 -766 -29 -330 -32 -719 -6
-839 47 -217 118 -309 277 -359 454 -144 856 75 1256 683 117 178 188 303 340
595 274 528 320 601 436 686 206 151 449 76 758 -235 122 -123 213 -231 423
-501 285 -367 451 -509 597 -510 198 0 290 274 290 861 0 229 11 311 62 463
46 136 73 184 157 266 167 166 351 215 608 161 285 -59 477 -163 888 -480 260
-200 391 -291 505 -347 104 -52 243 -100 347 -120 70 -13 143 -19 143 -10 0 1
-20 46 -45 99 -25 54 -45 111 -45 130 0 41 39 121 83 167 36 39 141 130 164
144 9 5 23 14 32 22 9 7 27 22 40 32 24 19 25 20 12 78 -7 33 -42 158 -76 279
-122 423 -145 540 -145 733 0 151 18 239 72 350 47 97 130 188 227 250 224
145 474 132 1006 -52 343 -119 649 -207 1017 -291 195 -45 913 -195 932 -195
5 0 -89 67 -210 148 -495 334 -905 652 -1315 1018 l-136 122 -41 -11 c-119
-32 -328 78 -417 218 -32 50 -87 184 -99 240 -6 28 -3 32 51 64 32 19 111 70
176 112 l118 78 69 -66 c77 -72 144 -164 161 -223 11 -36 18 -41 138 -98 329
-157 712 -280 1061 -342 395 -69 872 -79 1245 -24 268 39 662 139 672 171 2 6
-58 50 -134 98 -187 119 -295 195 -507 354 -480 360 -1794 1445 -1775 1465 5
6 -2 21 -18 38 -20 21 -30 25 -39 17 -10 -8 -65 34 -231 177 -446 384 -976
853 -1283 1133 -200 183 -540 504 -537 508 2 1 70 -22 151 -53 278 -105 626
-178 903 -190 l128 -6 -45 39 c-208 178 -330 291 -551 512 -270 271 -440 463
-610 688 -73 97 -178 212 -354 393 -575 586 -846 939 -1489 1940 -227 353
-595 908 -650 980 -19 25 104 -93 272 -261 169 -168 359 -351 422 -406 572
-499 1052 -771 1531 -864 121 -23 359 -42 407 -31 l34 7 -143 110 c-1046 802
-2089 1939 -3058 3333 -62 89 -117 162 -121 162 -5 0 -12 -10 -16 -22 -3 -13
-26 -53 -51 -90 -174 -264 -449 -214 -738 133 -98 117 -143 186 -232 348 -152
277 -286 449 -388 497 -60 29 -80 30 -125 6z m900 -2617 c35 -18 73 -67 89
-114 18 -56 13 -182 -13 -304 -32 -147 -56 -321 -56 -406 0 -66 2 -72 44 -129
24 -33 71 -90 105 -126 86 -96 116 -161 116 -256 0 -64 -4 -82 -28 -122 -34
-59 -56 -74 -192 -133 -141 -61 -428 -205 -603 -302 -180 -99 -285 -172 -434
-301 -157 -134 -215 -173 -271 -179 -55 -7 -89 10 -148 74 -89 94 -219 351
-219 431 0 110 108 218 455 454 326 222 648 385 975 495 74 25 139 49 144 54
11 9 -19 207 -44 292 -10 34 -37 112 -60 172 -37 94 -44 124 -48 206 -6 127 6
165 62 190 50 23 88 24 126 4z m-777 -2577 c52 -79 111 -175 130 -213 40 -81
89 -233 111 -350 36 -183 48 -464 23 -500 -8 -10 -17 -14 -20 -8 -4 6 -11 73
-17 149 -33 434 -70 565 -249 882 -50 89 -91 166 -91 172 0 28 25 -2 113 -132z
m1771 -189 c64 -85 110 -170 142 -264 25 -71 28 -94 28 -205 0 -111 -3 -134
-27 -205 -27 -76 -86 -191 -127 -245 l-18 -24 -57 38 c-120 83 -196 206 -217
353 -24 167 24 378 116 508 43 60 89 105 107 105 4 0 28 -28 53 -61z m-1479
-929 c9 -14 -13 -50 -30 -50 -18 0 -19 14 -5 41 12 21 25 25 35 9z m4036 -328
c47 -73 69 -160 69 -266 0 -172 -51 -282 -137 -301 -82 -17 -240 46 -335 133
-84 79 -152 229 -161 356 l-2 38 205 108 205 109 63 -66 c35 -36 77 -86 93
-111z m-2898 -78 c67 -34 170 -110 226 -167 l43 -45 -83 -25 c-349 -106 -624
-171 -984 -233 -19 -3 4 14 64 46 167 91 467 291 621 414 25 20 49 36 53 36 4
0 31 -12 60 -26z m-2878 -234 c89 -14 188 -68 277 -150 43 -39 87 -84 98 -100
18 -25 18 -28 3 -24 -10 2 -106 20 -213 39 -187 34 -483 95 -564 116 l-39 11
41 24 c82 49 215 89 307 93 17 0 57 -4 90 -9z m3824 -414 c47 -50 40 -164 -13
-221 -27 -28 -41 -35 -72 -35 -50 0 -60 7 -79 55 -28 66 0 170 58 210 33 23
80 19 106 -9z m-3199 -91 c0 -2 -89 7 -107 11 -19 4 -23 11 -23 43 0 21 3 40
6 44 4 4 124 -90 124 -98z m3218 -237 c7 -7 12 -29 12 -50 0 -29 -6 -41 -26
-55 -35 -22 -58 -7 -62 40 -5 55 44 97 76 65z m-3498 -134 c20 -23 16 -96 -7
-140 -28 -55 -75 -84 -134 -84 -87 0 -113 59 -66 150 30 61 76 90 142 90 35 0
57 -5 65 -16z m-146 -310 c21 -8 21 -53 0 -82 -20 -29 -80 -31 -89 -3 -8 25
12 67 39 79 26 13 30 14 50 6z m8319 -1396 c82 -55 179 -152 207 -208 63 -123
83 -249 56 -344 -15 -49 -22 -59 -51 -72 -19 -8 -58 -14 -87 -14 -184 1 -359
121 -460 316 l-47 90 67 56 c37 30 107 92 157 137 49 44 91 81 93 81 2 0 31
-19 65 -42z m-1936 -641 c-8 -26 -28 -12 -87 65 l-64 83 77 -69 c43 -38 76
-74 74 -79z m131 -95 c23 -19 42 -37 42 -41 0 -3 -14 -14 -32 -24 l-31 -18
-24 28 c-54 65 -58 72 -37 87 21 16 23 15 82 -32z m-10856 -224 c-38 -57 -162
-254 -276 -438 -114 -184 -213 -341 -220 -347 -9 -10 -41 -4 -154 31 -133 40
-162 52 -151 59 258 180 614 500 799 720 35 42 66 77 67 77 2 0 -27 -46 -65
-102z m10069 -761 c100 -125 139 -228 139 -373 0 -109 -27 -209 -69 -256 -25
-28 -34 -32 -78 -31 -106 1 -260 107 -332 228 -42 69 -81 198 -84 278 l-2 58
80 33 c44 18 123 54 175 79 52 25 102 45 110 44 8 -1 35 -28 61 -60z m-10628
-96 c15 -6 13 -13 -18 -63 -35 -55 -37 -56 -65 -46 -35 12 -36 18 -14 82 16
45 17 47 48 40 17 -4 39 -9 49 -13z m-329 -437 c9 -9 16 -32 16 -56 0 -116
-138 -208 -212 -141 -48 43 5 162 87 199 41 18 90 17 109 -2z m9265 -80 c42
-54 35 -171 -14 -220 -31 -31 -94 -33 -120 -4 -20 22 -30 93 -21 144 4 20 22
51 40 71 42 44 85 48 115 9z m-9421 -246 c2 -17 -4 -34 -17 -47 -12 -12 -34
-21 -51 -21 -27 0 -30 3 -30 30 0 64 91 100 98 38z m1731 -32 c105 -20 177
-39 182 -47 14 -23 10 -238 -6 -299 -23 -88 -70 -171 -131 -234 -57 -58 -138
-106 -181 -106 -34 0 -101 66 -134 132 -83 164 -77 328 17 538 24 54 29 59 53
54 14 -3 104 -20 200 -38z m6409 -48 c49 -120 62 -175 62 -273 0 -103 -16
-171 -63 -258 -33 -62 -74 -103 -113 -113 -74 -19 -223 102 -283 230 -47 98
-65 201 -56 319 l7 95 66 12 c37 6 128 21 202 34 74 13 138 24 142 25 3 1 20
-32 36 -71z m1290 0 c17 -17 15 -68 -5 -90 -35 -39 -80 -7 -67 49 10 45 47 66
72 41z m-6166 -151 c103 -8 190 -16 194 -19 11 -12 24 -84 30 -178 6 -85 4
-104 -20 -180 -45 -147 -119 -250 -212 -296 -55 -27 -55 -27 -94 -9 -104 47
-192 231 -192 398 1 123 56 309 90 301 9 -3 101 -10 204 -17z m3072 -48 c23
-18 26 -28 26 -77 0 -123 -92 -209 -168 -156 -19 13 -22 24 -22 77 0 75 28
131 80 158 44 24 51 24 84 -2z m-1302 -94 c28 -110 33 -209 14 -289 -44 -186
-174 -341 -269 -320 -73 16 -192 181 -218 305 -15 68 -7 224 16 312 l18 67
210 -2 211 -3 18 -70z m1266 -268 c5 -42 -23 -79 -56 -75 -21 2 -28 9 -30 31
-5 42 23 79 56 75 21 -2 28 -9 30 -31z m-7943 -1278 c-48 -50 -63 -54 -92 -27
l-25 23 49 42 48 42 25 -24 24 -25 -29 -31z m15655 -65 c44 -37 60 -75 60
-139 0 -46 -4 -60 -25 -80 -36 -37 -83 -34 -122 8 -44 46 -53 69 -53 130 0
101 69 140 140 81z m150 -254 c10 -5 23 -24 29 -41 9 -26 8 -37 -4 -56 -20
-30 -39 -29 -64 3 -25 32 -26 52 -5 82 17 25 19 26 44 12z m-2391 -315 c142
-215 193 -340 236 -575 22 -123 33 -444 15 -465 -7 -8 -16 -13 -20 -10 -4 2
-10 55 -14 117 -27 447 -70 597 -275 958 -39 68 -71 128 -71 132 0 29 34 -13
129 -157z m-12767 -712 c75 -75 -62 -205 -183 -173 -101 27 -92 136 16 186 44
21 140 13 167 -13z m12846 -132 c2 -64 0 -130 -4 -147 l-9 -31 -128 67 -127
67 115 87 c63 48 118 92 121 98 15 24 27 -31 32 -141z m-13127 -81 c11 -6 19
-21 19 -35 0 -28 -26 -45 -68 -45 -55 0 -68 54 -19 78 29 14 44 14 68 2z
m13329 -184 c0 -7 -9 -21 -19 -30 -26 -24 -38 -3 -16 30 16 24 35 25 35 0z
m-261 -300 c143 -95 283 -271 381 -478 71 -151 70 -144 13 -169 -61 -27 -226
-69 -268 -69 -21 0 -39 -8 -55 -25 -46 -49 -174 -42 -300 17 -85 41 -186 141
-225 223 -27 59 -77 196 -72 201 32 29 365 244 378 244 12 0 27 17 44 50 14
28 28 50 31 50 4 0 36 -20 73 -44z m-1034 -68 c-2 -13 -6 -57 -10 -98 -3 -41
-8 -84 -10 -95 -2 -11 -7 -40 -10 -65 -5 -39 -13 -80 -40 -198 -3 -13 -21 -62
-41 -108 -58 -142 -132 -251 -243 -363 l-69 -69 17 -28 c54 -90 77 -218 61
-334 -11 -76 -50 -179 -79 -203 -42 -37 -145 -26 -246 26 -72 38 -174 135
-205 197 -12 25 -23 46 -25 48 -1 1 -55 -11 -120 -28 -154 -40 -186 -44 -340
-44 -150 0 -264 12 -325 34 -14 5 -52 16 -85 25 -33 9 -74 23 -92 31 -17 8
-35 14 -40 14 -5 0 -28 9 -51 20 -22 11 -45 20 -50 20 -25 0 -162 72 -172 90
-8 15 -17 19 -31 15 -12 -4 -45 8 -94 36 -41 24 -73 44 -71 46 2 2 86 28 186
59 318 96 694 236 1014 379 82 36 150 64 151 63 10 -12 45 -90 45 -101 0 -8
-33 -29 -75 -48 l-75 -34 61 -137 c57 -129 63 -137 85 -132 21 5 24 3 24 -20
0 -14 2 -26 4 -26 5 0 272 122 338 155 l58 29 -21 22 -21 22 21 7 c19 6 17 14
-49 146 l-70 139 -78 -39 -79 -39 -27 55 c-15 30 -26 56 -24 58 2 1 91 47 198
102 222 114 396 211 573 317 67 41 125 75 129 75 4 1 5 -9 3 -21z m-10181
-359 c32 -15 32 -27 1 -123 -39 -119 -72 -175 -145 -247 -104 -102 -246 -161
-350 -145 -36 5 -50 13 -68 40 -36 53 -52 122 -54 226 -3 164 43 261 185 398
l75 72 165 -105 c90 -57 176 -110 191 -116z m1321 -129 c66 -29 122 -54 124
-56 2 -2 -34 -102 -45 -122 -1 -1 -36 13 -79 33 -43 19 -80 34 -81 32 -13 -13
-123 -272 -117 -275 33 -11 37 -21 14 -39 l-24 -19 104 -46 c57 -26 150 -64
207 -86 l102 -40 0 28 c0 23 4 27 23 23 20 -4 27 8 75 133 29 75 49 140 45
144 -4 4 -41 20 -80 35 -40 16 -73 29 -73 30 0 8 50 115 54 115 2 0 57 -21
123 -46 393 -153 1014 -351 1217 -390 20 -3 39 -10 41 -15 6 -9 -14 -100 -25
-112 -4 -5 -43 1 -86 12 -43 11 -79 19 -81 17 -1 -1 -20 -67 -41 -147 -35
-133 -37 -144 -20 -147 22 -4 22 -11 3 -39 -15 -21 -14 -22 22 -32 112 -29
286 -71 341 -82 l62 -12 0 -111 c0 -181 -42 -294 -148 -401 -95 -95 -196 -139
-253 -110 -66 35 -142 174 -159 293 -10 74 -2 170 20 227 5 14 7 25 5 25 -2 0
-35 -26 -72 -58 -457 -388 -884 -672 -1238 -822 -91 -39 -225 -74 -400 -105
-214 -39 -463 -9 -601 71 -64 36 -128 114 -154 186 -28 77 -31 199 -6 293 2 6
6 24 10 40 42 166 226 520 431 830 198 299 601 813 629 802 6 -3 65 -29 131
-57z m1869 -611 l39 -11 -58 -52 c-47 -42 -64 -51 -87 -48 -32 5 -34 18 -17
88 12 46 12 46 48 39 20 -3 54 -11 75 -16z m1209 -190 c112 -10 137 -15 132
-26 -3 -8 -5 -37 -5 -65 l0 -50 -89 7 -88 7 -9 -48 -9 -48 -47 95 c-26 51 -50
107 -54 123 -6 24 -4 27 12 23 11 -3 81 -11 157 -18z m527 -39 c107 -5 316
-10 463 -10 l269 0 -33 -42 c-53 -68 -199 -216 -261 -264 -176 -137 -449 -244
-555 -218 -15 4 -24 18 -32 49 -14 56 -14 55 8 55 17 0 20 11 25 118 4 64 9
133 11 153 l5 36 -86 6 c-48 3 -89 8 -91 11 -3 3 -2 32 2 65 l7 61 36 -5 c21
-3 125 -10 232 -15z m2950 -262 c53 -87 3 -224 -87 -243 -59 -12 -93 30 -93
117 0 83 60 158 126 158 28 0 38 -6 54 -32z m-1391 -303 c31 -88 35 -112 35
-200 -1 -84 -5 -111 -27 -168 -43 -111 -121 -205 -193 -236 -98 -40 -287 155
-325 337 -13 65 -6 209 14 287 l13 50 110 7 c60 4 145 12 189 17 44 5 96 8
115 7 l35 -1 34 -100z m-1953 50 c34 -52 -5 -166 -70 -206 -66 -40 -146 -9
-146 57 0 64 47 144 95 164 11 5 39 9 62 9 35 1 46 -4 59 -24z m3344 -110 c0
-36 -28 -75 -53 -75 -44 0 -51 77 -11 109 36 28 64 13 64 -34z m-3452 -232 c4
-41 -28 -76 -66 -71 -22 2 -28 9 -30 35 -4 41 28 76 66 71 22 -2 28 -9 30 -35z
m10469 -1615 c39 -36 53 -72 53 -134 0 -60 -25 -115 -60 -134 -75 -40 -160 42
-160 152 0 50 30 121 57 137 26 16 82 6 110 -21z m-16004 -3 c15 -9 39 -42 54
-73 38 -77 37 -176 -5 -377 -38 -182 -56 -340 -48 -400 8 -48 52 -114 150
-223 76 -85 108 -150 114 -235 6 -81 -13 -139 -61 -185 -19 -18 -87 -55 -167
-90 -164 -72 -366 -173 -562 -280 -223 -123 -300 -176 -493 -341 -200 -171
-261 -194 -347 -128 -66 50 -112 118 -194 282 -82 166 -89 202 -53 270 26 49
102 129 189 198 36 29 71 57 78 64 19 19 332 227 382 255 25 14 87 49 138 78
192 108 446 219 662 291 133 44 122 19 89 207 -11 63 -31 146 -45 185 -84 232
-87 242 -91 332 -4 73 -1 97 14 125 34 66 130 89 196 45z m16171 -261 c19 -18
21 -85 4 -102 -17 -17 -53 -15 -69 4 -7 9 -13 31 -13 49 0 58 43 85 78 49z
m-17451 -616 c59 -18 107 -67 107 -109 0 -67 -56 -109 -145 -109 -59 0 -117
30 -144 73 -28 45 -26 69 5 106 39 47 103 61 177 39z m-229 -219 c14 -11 26
-27 26 -34 0 -44 -84 -61 -120 -25 -26 26 -25 45 2 64 31 22 60 20 92 -5z
m16359 -255 c102 -51 159 -96 201 -156 70 -103 102 -258 76 -377 -18 -86 -41
-118 -108 -149 -51 -24 -69 -27 -167 -27 -97 0 -120 4 -189 29 -101 37 -173
105 -238 225 l-46 84 196 204 c108 112 198 203 199 203 2 0 36 -16 76 -36z
m-15550 -1369 c113 -194 176 -470 177 -766 0 -106 -3 -139 -14 -148 -20 -17
-23 -8 -30 104 -32 473 -68 598 -285 982 -34 62 -60 117 -56 123 7 12 135
-168 208 -295z m1708 -81 c124 -180 168 -397 119 -588 -20 -78 -91 -228 -133
-280 l-24 -29 -45 31 c-158 108 -232 251 -231 447 0 195 56 354 165 470 l60
65 30 -38 c17 -20 43 -56 59 -78z m12318 26 c137 -89 211 -196 231 -337 17
-120 -15 -263 -73 -335 -37 -46 -204 -63 -316 -33 -126 33 -239 122 -293 231
-38 75 -71 178 -59 182 12 4 274 208 364 283 32 27 64 49 71 49 7 0 41 -18 75
-40z m-13835 -938 c-13 -21 -44 -28 -44 -11 0 7 8 21 17 31 21 24 44 7 27 -20z
m2378 -25 c46 -35 149 -112 231 -171 81 -59 147 -111 147 -115 0 -16 -48 -149
-69 -189 -48 -93 -145 -173 -257 -211 -128 -42 -273 -36 -334 15 -71 60 -113
223 -92 360 16 101 54 177 121 244 43 43 152 127 168 130 2 0 40 -29 85 -63z
m9748 -252 c70 -51 150 -142 176 -200 13 -27 28 -83 35 -122 21 -127 -18 -283
-90 -364 l-38 -43 -90 -4 c-99 -5 -168 10 -257 55 -70 36 -158 122 -190 189
-27 55 -75 219 -66 227 3 2 100 63 215 135 116 72 219 138 230 146 11 8 22 16
24 16 2 0 25 -16 51 -35z m-7839 -1051 c170 -103 239 -151 239 -164 0 -34 -51
-195 -75 -236 -26 -45 -121 -136 -164 -158 -14 -8 -59 -24 -99 -36 -59 -18
-90 -22 -162 -18 -98 5 -110 11 -160 84 -49 71 -73 170 -68 287 5 152 47 229
183 345 28 23 54 42 59 42 5 0 116 -66 247 -146z m2812 -49 c105 -27 167 -64
254 -151 67 -67 89 -98 127 -175 42 -88 83 -206 74 -214 -8 -9 -492 -195 -505
-195 -38 0 -1003 453 -1003 470 0 13 318 159 431 198 106 37 261 75 349 86 62
7 213 -3 273 -19z m2974 -134 c50 -75 16 -196 -67 -238 -59 -30 -76 -29 -111
8 -25 26 -29 39 -29 85 0 70 18 111 64 152 32 28 44 33 79 30 34 -2 45 -9 64
-37z m-3942 -261 l166 -79 -31 -61 -30 -60 -100 50 -100 50 -68 -136 c-37 -75
-62 -139 -57 -141 35 -13 31 -22 -59 -114 -104 -107 -141 -171 -159 -273 l-11
-66 -216 -70 c-566 -181 -1039 -322 -1634 -485 -93 -25 -170 -44 -172 -42 -3
2 53 37 123 77 421 242 760 464 1180 773 155 114 372 268 482 342 218 147 488
315 507 315 7 0 87 -36 179 -80z m3973 -52 c18 -18 14 -62 -9 -92 -35 -45 -79
-29 -79 29 0 59 54 97 88 63z m-3590 -137 c32 -16 136 -64 232 -106 96 -42
179 -80 183 -84 4 -4 -85 -42 -199 -84 -114 -43 -209 -76 -210 -74 -2 2 14 40
36 85 l39 81 -105 50 -104 50 27 55 c15 31 31 56 35 56 5 0 34 -13 66 -29z
m1072 -98 c14 -88 29 -286 21 -295 -3 -3 -94 32 -201 78 -107 47 -211 92 -230
100 l-35 15 210 83 c116 46 213 84 217 85 3 1 11 -29 18 -66z m-1557 -242 c74
-18 105 -72 76 -135 -9 -19 -32 -32 -96 -56 -46 -16 -92 -30 -101 -30 -25 0
-79 36 -93 61 -28 53 35 141 114 159 44 11 56 11 100 1z m-174 -364 c-14 -12
-35 -17 -57 -15 -55 5 -49 24 15 45 51 18 58 18 62 4 2 -8 -7 -23 -20 -34z
m350 -433 c76 -97 -11 -264 -138 -264 -57 0 -91 74 -71 152 30 112 156 180
209 112z m5 -357 c13 -35 -18 -81 -59 -85 -48 -6 -61 45 -24 92 28 36 70 33
83 -7z m-3806 -206 l-53 -79 -73 -16 c-40 -9 -79 -16 -86 -16 -8 0 -20 24 -29
60 -15 59 -14 60 7 66 78 19 263 62 274 63 6 0 -12 -35 -40 -78z m7676 -162
c47 -37 30 -133 -31 -177 -46 -33 -105 -44 -157 -31 -63 16 -80 37 -73 95 5
51 41 97 92 120 48 21 137 18 169 -7z m9299 -202 l-47 -8 -55 56 -56 56 102
-48 103 -48 -47 -8z m-9479 -93 c23 -9 20 -57 -4 -79 -20 -19 -77 -24 -99 -10
-19 11 -12 45 14 70 23 24 57 31 89 19z m2328 -151 c179 -32 269 -52 273 -61
3 -8 10 -54 15 -104 19 -165 -19 -276 -130 -388 -76 -76 -169 -127 -251 -135
-48 -5 -60 -3 -106 25 -129 75 -223 267 -209 427 9 106 86 283 124 283 9 0
137 -21 284 -47z m-14282 -243 c0 -11 -7 -20 -15 -20 -18 0 -19 12 -3 28 16
16 18 15 18 -8z m16419 -49 c164 -13 236 -23 242 -32 11 -19 39 -177 39 -224
0 -58 -27 -152 -57 -205 -64 -108 -191 -210 -289 -230 -52 -11 -59 -10 -108
14 -63 31 -154 123 -189 192 -76 150 -75 278 3 450 l30 66 47 -6 c27 -4 153
-15 282 -25z m2316 -130 l50 -6 24 -70 c20 -56 25 -90 25 -175 1 -103 0 -108
-36 -182 -50 -100 -158 -205 -244 -238 -51 -19 -64 -20 -99 -10 -140 41 -275
205 -306 370 -13 74 0 165 41 272 l21 58 237 -6 c130 -3 260 -9 287 -13z
m1848 10 c37 -14 53 -70 37 -127 -24 -85 -109 -142 -193 -131 -51 7 -67 28
-67 86 0 69 33 120 99 154 58 29 85 33 124 18z m-20496 -231 c79 -28 67 -168
-20 -234 -41 -31 -111 -42 -147 -24 -17 10 -27 26 -33 57 -16 81 36 167 119
196 48 17 45 17 81 5z m20431 -143 c5 -46 -22 -77 -67 -77 -31 0 -40 4 -44 22
-12 43 30 89 78 85 25 -2 31 -7 33 -30z m-20474 -203 c24 -9 21 -69 -5 -95
-14 -14 -30 -19 -52 -17 -26 2 -33 8 -35 30 -7 55 44 100 92 82z m23709 -1539
c32 -38 75 -103 95 -144 35 -71 37 -80 36 -171 0 -114 -28 -196 -99 -295 -59
-83 -122 -125 -187 -125 -146 0 -340 126 -412 268 -37 74 -52 191 -36 293 7
43 17 85 24 92 6 8 86 35 178 61 92 26 198 58 235 71 38 13 77 23 88 22 10 -1
45 -33 78 -72z m-2462 -691 c19 -21 24 -36 23 -80 0 -97 -78 -174 -175 -174
-54 0 -77 20 -86 74 -21 129 159 265 238 180z m-33 -366 c4 -49 -26 -80 -71
-76 -29 3 -32 7 -35 39 -3 30 2 41 24 58 16 13 39 21 53 19 22 -3 26 -9 29
-40z m-1811 -40 c66 -112 78 -154 78 -268 0 -98 -2 -110 -33 -175 -46 -96
-103 -169 -167 -212 -52 -34 -59 -35 -114 -30 -131 11 -299 135 -363 265 -32
64 -33 71 -33 187 0 188 -32 163 292 227 153 31 285 56 293 57 9 0 29 -23 47
-51z m-21882 -217 c83 -22 170 -45 193 -51 l44 -11 -162 -115 c-89 -63 -164
-113 -167 -110 -2 2 5 38 17 80 11 42 19 80 16 84 -3 5 -53 22 -111 38 -58 15
-105 33 -105 39 0 6 7 34 15 63 l15 51 48 -14 c26 -7 115 -32 197 -54z m19719
-254 c45 -89 50 -105 54 -181 5 -104 -19 -193 -76 -281 -48 -75 -132 -151
-183 -166 -124 -38 -340 94 -420 257 -30 60 -34 80 -38 164 -4 122 13 229 37
224 9 -2 127 16 262 40 135 24 261 43 280 42 34 -1 37 -4 84 -99z m-2229 -307
c14 -21 37 -70 52 -107 25 -59 28 -81 28 -174 0 -104 -1 -107 -42 -190 -49
-99 -118 -176 -191 -213 -46 -23 -56 -25 -104 -16 -135 25 -280 138 -340 266
-27 57 -33 84 -37 154 -3 83 13 215 28 225 4 2 113 20 242 40 129 19 254 39
279 44 25 5 48 9 52 10 4 1 19 -17 33 -39z m-15838 -356 c51 -51 14 -152 -70
-193 -69 -34 -174 -23 -197 19 -17 32 -11 85 13 121 35 52 90 79 165 79 54 0
66 -3 89 -26z m13286 -25 c61 -28 60 -144 -1 -213 -41 -46 -138 -69 -185 -45
-31 17 -37 28 -37 77 0 58 21 104 64 138 60 48 116 63 159 43z m-1838 -292
c47 -101 58 -155 53 -246 -6 -106 -54 -207 -139 -297 -80 -82 -150 -119 -211
-109 -116 19 -271 142 -330 263 -26 52 -32 79 -36 145 -4 83 18 221 38 241 8
8 485 72 563 75 26 1 31 -6 62 -72z m-9339 34 c76 -11 201 -25 276 -32 76 -7
142 -15 148 -19 20 -12 42 -152 38 -246 -5 -119 -35 -182 -132 -280 -77 -77
-148 -119 -230 -135 -49 -10 -57 -9 -107 16 -78 40 -161 129 -206 222 -33 69
-38 89 -41 169 -3 69 0 105 13 145 26 82 75 179 89 179 7 0 75 -9 152 -19z
m-2268 -44 c6 -51 -60 -93 -107 -67 -53 28 0 104 68 98 31 -3 36 -7 39 -31z
m13400 -49 c20 -20 14 -63 -12 -87 -33 -31 -90 -26 -94 7 -8 54 72 114 106 80z
m-8836 -103 c123 -8 251 -15 285 -15 l62 0 23 -72 c18 -58 23 -96 23 -183 0
-105 -2 -113 -34 -179 -59 -120 -204 -241 -314 -260 -53 -10 -126 26 -204 98
-174 161 -208 347 -106 578 14 32 29 55 34 53 4 -3 108 -12 231 -20z m4477
-41 c51 -65 0 -189 -92 -223 -49 -19 -120 -14 -146 10 -20 19 -23 29 -19 75 8
95 87 163 190 164 39 0 50 -5 67 -26z m-1889 -57 c34 -77 52 -176 47 -252 -9
-127 -91 -260 -212 -344 -103 -71 -166 -76 -261 -21 -94 53 -183 156 -225 261
-37 92 -27 237 26 363 l15 36 296 0 295 0 19 -43z m1798 -298 c3 -30 -2 -41
-24 -58 -50 -39 -104 -13 -90 42 7 31 50 58 86 54 21 -2 25 -8 28 -38z m2216
-4549 c-112 -359 -219 -762 -274 -1030 -35 -168 -51 -352 -31 -364 7 -5 1 -26
-20 -68 l-31 -61 -19 30 c-36 56 -109 304 -204 687 -52 209 -96 397 -97 416
l-3 34 360 252 c198 139 361 252 362 250 1 -1 -18 -67 -43 -146z"/>
<path d="M19007 48819 c-26 -15 -47 -63 -47 -110 0 -23 23 -112 51 -198 28
-86 61 -196 73 -244 l23 -89 7 54 c4 29 18 109 31 178 49 259 45 310 -30 379
-45 41 -74 50 -108 30z"/>
<path d="M11037 31499 c-24 -14 -47 -69 -47 -110 0 -17 25 -108 55 -202 30
-95 63 -203 73 -240 18 -67 32 -79 32 -26 0 15 11 85 25 155 14 70 28 168 31
218 5 82 3 95 -18 131 -40 68 -106 100 -151 74z"/>
<path d="M24355 47950 c5 -8 29 -44 53 -80 57 -84 144 -264 177 -364 161 -484
77 -1036 -217 -1434 -22 -29 -38 -59 -36 -66 4 -19 215 -250 339 -371 56 -55
99 -92 96 -83 -3 9 0 22 8 28 25 21 122 174 168 266 60 120 111 269 139 407
32 158 32 453 0 603 -52 241 -156 469 -301 659 -44 58 -443 465 -426 435z"/>
<path d="M25424 44893 c170 -248 264 -550 269 -867 l2 -138 30 -24 c17 -13 66
-46 111 -73 90 -56 173 -119 253 -195 l53 -51 -6 100 c-26 426 -207 801 -526
1091 -25 22 -85 84 -133 137 -49 53 -93 97 -97 97 -5 0 15 -35 44 -77z"/>
<path d="M26315 43360 c10 -11 20 -20 23 -20 3 0 -3 9 -13 20 -10 11 -20 20
-23 20 -3 0 3 -9 13 -20z"/>
<path d="M11795 42668 c-162 -163 -165 -167 -75 -92 145 120 265 227 264 236
-3 24 -5 28 -12 28 -4 0 -84 -77 -177 -172z"/>
<path d="M28775 41360 c106 -158 189 -354 236 -555 26 -115 37 -422 20 -547
-15 -104 -56 -263 -89 -347 -21 -53 -23 -66 -11 -69 33 -11 290 -149 386 -207
66 -41 106 -60 108 -52 19 53 47 204 57 310 34 368 -79 769 -304 1068 -38 52
-158 182 -265 289 l-195 195 57 -85z"/>
<path d="M30087 38974 c114 -137 257 -389 327 -577 50 -134 93 -305 111 -443
19 -146 19 -408 0 -544 -56 -395 -232 -790 -499 -1115 -36 -44 -66 -82 -65
-85 1 -5 319 -299 409 -378 l48 -42 57 67 c356 428 547 1001 506 1518 -21 275
-87 518 -201 750 -121 244 -243 409 -486 655 -90 91 -172 177 -184 193 -12 15
-31 32 -43 39 -14 7 -8 -5 20 -38z"/>
<path d="M7725 38062 c41 -44 45 -47 45 -34 0 5 -19 24 -42 42 l-43 33 40 -41z"/>
<path d="M31805 34430 c223 -268 364 -539 427 -821 20 -92 23 -129 23 -324 -1
-190 -4 -234 -24 -325 -47 -218 -120 -392 -242 -577 -98 -146 -294 -343 -436
-437 -57 -38 -103 -71 -103 -75 0 -3 7 -46 15 -96 19 -116 19 -369 0 -505 -57
-399 -251 -757 -543 -1002 -48 -41 -111 -89 -140 -108 -28 -18 -52 -36 -52
-40 0 -4 131 -152 291 -330 707 -786 1433 -1610 1710 -1940 531 -635 763
-1022 846 -1410 28 -130 25 -428 -6 -570 -61 -287 -196 -569 -356 -748 l-46
-51 51 -61 c192 -231 323 -540 356 -837 6 -57 11 -68 61 -125 375 -431 552
-901 504 -1342 -14 -125 -55 -297 -99 -408 l-30 -78 212 -197 c116 -109 218
-204 227 -211 15 -11 20 -2 47 75 65 184 92 336 92 523 0 395 -169 785 -514
1190 -25 29 -48 67 -51 84 -3 17 -12 76 -21 131 -42 261 -176 551 -345 747
l-50 57 54 65 c165 194 282 432 341 697 131 587 -36 1035 -688 1843 -266 330
-910 1064 -1815 2072 l-339 376 68 47 c338 230 578 592 659 996 46 228 51 447
16 634 -9 46 -15 84 -13 85 284 184 453 351 592 583 164 274 247 636 218 951
-46 493 -279 878 -898 1482 l-87 85 88 -105z"/>
<path d="M5295 30770 l150 -150 7 38 c14 74 12 76 -54 108 -34 16 -105 57
-157 92 l-96 63 150 -151z"/>
<path d="M6090 29192 c0 -4 46 -51 102 -104 l103 -98 21 27 21 27 -73 42 c-40
23 -96 58 -124 78 -27 20 -50 33 -50 28z"/>
<path d="M4480 23673 c22 -26 39 -38 44 -33 5 5 8 11 5 13 -2 2 -22 17 -44 33
l-40 29 35 -42z"/>
<path d="M5351 22151 c-72 -91 -99 -136 -89 -146 2 -2 14 -2 26 2 15 4 35 33
67 96 25 50 55 103 66 119 11 15 18 28 15 28 -3 0 -41 -45 -85 -99z"/>
<path d="M35445 20830 c10 -11 20 -20 23 -20 3 0 -3 9 -13 20 -10 11 -20 20
-23 20 -3 0 3 -9 13 -20z"/>
<path d="M35556 20705 c244 -286 396 -572 460 -865 26 -118 26 -454 1 -585
-24 -121 -80 -300 -126 -399 -104 -225 -291 -457 -486 -604 l-30 -22 50 -43
c27 -23 135 -115 239 -204 105 -90 193 -163 196 -163 14 0 163 138 223 207
380 434 502 1041 317 1568 -102 289 -282 543 -679 963 -159 167 -258 256 -165
147z"/>
<path d="M36336 17330 c233 -293 334 -573 334 -921 0 -354 -86 -651 -264 -919
-126 -188 -265 -326 -454 -453 -109 -73 -480 -256 -677 -335 -248 -99 -591
-207 -807 -253 -32 -7 -58 -15 -58 -19 0 -4 53 -52 118 -108 65 -55 167 -152
228 -215 l111 -114 169 43 c369 93 697 215 1049 389 321 158 476 267 627 440
239 274 371 593 397 961 25 351 -44 631 -222 902 -85 130 -178 237 -418 482
-162 166 -187 189 -133 120z"/>
<path d="M34895 13960 c5 -8 27 -40 50 -70 153 -201 261 -430 311 -660 29
-132 27 -477 -4 -620 -126 -578 -524 -1027 -1070 -1206 -183 -60 -558 -113
-1102 -156 -260 -21 -1236 -17 -1510 5 -446 36 -836 87 -1238 161 -142 26
-232 38 -232 32 0 -6 -31 -74 -70 -151 -155 -314 -405 -564 -718 -720 -235
-117 -667 -231 -1087 -287 -149 -20 -214 -22 -525 -22 -282 -1 -385 3 -500 17
-386 48 -749 137 -1105 270 -154 57 -386 157 -502 216 l-56 28 -121 -122
c-135 -136 -260 -229 -404 -304 -219 -112 -399 -163 -637 -181 -197 -15 -438
15 -616 75 l-72 25 6 -423 c17 -1155 134 -2368 282 -2926 14 -52 48 -142 76
-200 88 -181 267 -597 293 -679 201 -639 -24 -1342 -559 -1742 -202 -151 -411
-242 -682 -297 -83 -17 -303 -18 -4013 -21 -2702 -2 -3962 1 -4044 8 -134 12
-256 36 -372 75 -100 33 -280 120 -364 177 -36 24 -72 48 -80 53 -40 23 387
-390 457 -442 189 -141 382 -228 632 -285 l96 -23 3975 -3 c2833 -2 4003 0
4072 8 793 90 1398 766 1398 1565 0 189 -38 395 -104 562 -38 98 -223 516
-280 634 -166 344 -316 1722 -342 3151 l-7 368 69 -24 c398 -135 841 -106
1221 80 197 97 397 254 535 421 l26 32 154 -73 c1097 -526 2266 -616 3363
-259 182 59 303 116 440 207 227 152 410 360 535 610 39 76 70 145 70 154 0
18 1 17 265 -32 1088 -202 2223 -238 3290 -105 434 53 620 107 847 242 566
336 875 1001 763 1643 -44 252 -179 529 -367 755 -67 80 -457 485 -443 459z"/>
<path d="M1645 13460 c49 -57 326 -331 385 -380 244 -206 670 -441 1076 -593
102 -38 349 -117 366 -117 3 0 29 40 57 89 28 49 72 117 97 151 25 34 43 64
41 67 -3 2 -58 13 -123 23 -345 56 -680 147 -991 269 -265 105 -626 298 -843
453 -47 34 -76 50 -65 38z"/>
<path d="M8170 10394 c-517 -141 -1255 -266 -1875 -318 -455 -38 -1154 -45
-1505 -16 -297 25 -544 110 -776 265 l-99 66 185 -186 c254 -255 367 -342 575
-441 201 -96 386 -138 671 -154 242 -13 823 -13 1074 0 730 39 1529 163 2217
346 l133 35 62 -49 c236 -185 490 -292 805 -339 162 -24 518 -24 693 1 348 48
735 145 1198 298 l193 64 47 -51 c194 -210 463 -376 732 -451 161 -46 255 -58
440 -58 195 0 248 8 580 81 183 40 468 115 662 174 l70 21 -4 288 c-2 159 -6
291 -9 294 -3 4 -134 -36 -290 -88 -415 -138 -841 -249 -1172 -306 -162 -27
-401 -28 -560 0 -335 57 -623 208 -866 453 l-84 85 -161 -54 c-699 -235 -1292
-351 -1676 -329 -440 26 -739 125 -1021 338 -49 37 -95 67 -102 66 -6 0 -68
-16 -137 -35z"/>
</g>
</svg>
