<?xml version="1.0" encoding="UTF-8"?>
<svg version="1.1" xmlns="http://www.w3.org/2000/svg" width="512" height="512">
<path d="M0 0 C3.6804118 1.22680393 4.16393589 2.37004208 6.25 5.5625 C17.08510169 21.42094405 32.51139792 32.94202505 51.37890625 37.51171875 C55.56490256 38.29152432 59.75245516 38.73280087 64 39 C65 42 65 42 64.07421875 44.3125 C63.61660156 45.199375 63.15898437 46.08625 62.6875 47 C58.21990705 56.44541239 56.49797012 66.22166875 59.75390625 76.34375 C65.39921247 90.13813841 75.84247549 96.92514294 89 103 C87.49030849 106.70333167 85.3336357 108.67763944 82.3125 111.25 C73.09498373 119.41976981 65.28230227 127.89663271 63.48828125 140.6328125 C63.14821513 151.4914754 66.12016939 157.97353096 73 166 C73 166.99 73 167.98 73 169 C70.03 169.66 67.06 170.32 64 171 C64 173.87141726 65.40165921 175.03336315 67.125 177.3125 C71.45880631 183.36747175 77 191.34517345 77 199 C86.19779417 191.33517152 87.17216846 179.16085015 89 168 C90.43793392 168.31049726 91.8753318 168.6234776 93.3125 168.9375 C94.11300781 169.11152344 94.91351563 169.28554687 95.73828125 169.46484375 C98 170 98 170 101 171 C103.43362472 171.17241708 105.87320596 171.26665768 108.3125 171.3125 C109.60800781 171.34988281 110.90351563 171.38726562 112.23828125 171.42578125 C117.74515071 170.80246996 120.74835172 168.49502433 124.25 164.3125 C126.37535331 160.28950981 127.24709535 156.45798804 128 152 C131.22484447 152.62685962 132.31025792 153.24060818 135.0625 155.375 C141.42929572 160.08861486 150.16916592 162.05169097 158 161 C165.69565588 159.52294783 172.81423072 157.07605721 180 154 C181.6652131 153.32971085 183.33151311 152.66209797 185 152 C183.83062745 155.93334405 182.28709268 159.50788145 180.5 163.1875 C175.22947321 174.61474835 174.96815142 185.07306411 178.77734375 196.96484375 C180.31573765 200.78379602 182.19404789 203.03816167 185 206 C185 206.99 185 207.98 185 209 C184.41992188 209.09796875 183.83984375 209.1959375 183.2421875 209.296875 C176.70072608 210.54903593 172.14602585 212.30963547 167.859375 217.68359375 C164.33287299 223.97351014 165.04169561 231.97512154 166.68359375 238.87109375 C167.19188427 240.35218908 167.73910132 241.82118649 168.34375 243.265625 C169 245 169 245 169 248 C167.02 248.99 167.02 248.99 165 250 C167.20035585 252.62350121 168.64137316 253.88554463 171.9375 254.9375 C175.60690212 255.01238576 177.04147981 254.07896013 180 252 C180.99 251.67 181.98 251.34 183 251 C183.09796875 251.70125 183.1959375 252.4025 183.296875 253.125 C184.85645002 263.0202346 187.25408049 269.04932541 195 275.5546875 C196.93281424 276.95144779 198.83699632 278.00540456 201 279 C201 279.66 201 280.32 201 281 C199.2421875 282.2265625 199.2421875 282.2265625 196.875 283.625 C190.31922567 287.85786217 185.77035031 293.27483502 184 301 C183.58792228 303.66638523 183.27784475 306.31416739 183 309 C182.34 309 181.68 309 181 309 C181 308.34 181 307.68 181 307 C176.55335763 305.20016856 173.64984257 304.68591406 169 306 C166.67780342 307.44730093 166.67780342 307.44730093 165 309 C165.33968712 315.79374236 169.01493775 320.21308964 173.82421875 324.703125 C186.28584306 334.71286785 201.71812662 335.27137868 217 336 C216.71122471 337.3547862 216.41879283 338.70879302 216.125 340.0625 C215.88136719 341.19365234 215.88136719 341.19365234 215.6328125 342.34765625 C215.15518631 344.3495586 214.57733808 346.32791543 213.953125 348.2890625 C211.62938929 357.33639417 211.57424613 368.34226942 215.6640625 376.85546875 C223.43893217 389.33618059 235.12295266 395.36834719 249 399 C247.71057005 402.64597433 246.19704413 405.19812592 243.6875 408.125 C230.86134378 424.33066211 229.4689716 445.1324634 231 465 C231.44585483 467.89990258 231.97058742 470.7609963 232.57568359 473.6315918 C233 476 233 476 233 480 C231.60386935 479.85704109 230.20810692 479.71048442 228.8125 479.5625 C228.03519531 479.48128906 227.25789063 479.40007812 226.45703125 479.31640625 C224 479 224 479 221.69726562 478.49511719 C201.39313229 474.76803696 180.58118969 478.47312617 163 489 C160.46284222 490.81882719 158.04357343 492.68641746 155.671875 494.71484375 C154 496 154 496 152 496 C151.6596875 495.05640625 151.319375 494.1128125 150.96875 493.140625 C144.97918119 477.06036961 136.31723637 463.13373394 120.59765625 455.15234375 C117.41894125 453.7422371 114.39140316 452.75364515 111 452 C111.66 455.96 112.32 459.92 113 464 C111.1025 463.608125 109.205 463.21625 107.25 462.8125 C96.87203483 461.24452483 88.95892352 463.66291212 80.546875 469.79296875 C80.03640625 470.19128906 79.5259375 470.58960938 79 471 C78.76216797 470.07767578 78.76216797 470.07767578 78.51953125 469.13671875 C77.049198 464.00605017 77.049198 464.00605017 73.8125 459.875 C67.07334284 457.77837333 60.35061517 460.66262081 54 463 C54.05220703 461.71416016 54.05220703 461.71416016 54.10546875 460.40234375 C54.26218361 453.78300666 54.253889 448.82988446 51 443 C45.84995237 445.57502381 42.50611893 447.57007566 40 453 C39.83068116 458.3335434 40.55639657 460.86921437 44.0625 464.875 C44.61035156 465.42929687 45.15820312 465.98359375 45.72265625 466.5546875 C47 468 47 468 47 470 C46.05640625 470.08636719 45.1128125 470.17273438 44.140625 470.26171875 C31.07914195 471.69113808 17.46423521 475.23852031 8.703125 485.7578125 C5.05445913 490.69244866 5.05445913 490.69244866 2 496 C1.34 496 0.68 496 0 496 C-1.07810349 494.34850074 -2.08672554 492.65144899 -3.0625 490.9375 C-9.33637144 480.81079465 -18.6061434 475.31028928 -29.9375 472.3125 C-34.95495457 471.13942295 -39.86818925 470.4276509 -45 470 C-43.82709619 467.49640263 -42.83223455 465.81698315 -40.9375 463.75 C-38.44628668 460.21408432 -37.65226556 457.31699586 -38 453 C-40.31775136 448.17907716 -43.29382387 445.50328518 -48 443 C-48.99 443.33 -49.98 443.66 -51 444 C-52.95065425 448.3534469 -53.22148123 452.14741951 -53.125 456.875 C-53.10695312 458.02742188 -53.08890625 459.17984375 -53.0703125 460.3671875 C-53.04710937 461.23601562 -53.02390625 462.10484375 -53 463 C-53.85722656 462.69964844 -54.71445313 462.39929688 -55.59765625 462.08984375 C-64.22316697 458.95800888 -64.22316697 458.95800888 -73 460 C-76.28747843 462.94739445 -76.95388575 466.81554299 -78 471 C-78.76570313 470.40251953 -78.76570313 470.40251953 -79.546875 469.79296875 C-87.95892352 463.66291212 -95.87203483 461.24452483 -106.25 462.8125 C-108.1475 463.204375 -110.045 463.59625 -112 464 C-111.01 458.06 -111.01 458.06 -110 452 C-116.83527534 454.64090184 -122.73909346 457.05971669 -128.37890625 461.765625 C-130 463 -130 463 -133 464 C-134.03990995 465.82878774 -134.03990995 465.82878774 -135 468 C-136.06402031 469.51376085 -137.14936182 471.01265111 -138.25 472.5 C-143.39911883 479.76681488 -147.32309608 487.50428614 -150 496 C-153.64597433 494.71057005 -156.19812592 493.19704413 -159.125 490.6875 C-175.60810842 477.64175573 -196.81913216 476.45066843 -217 478 C-219.65242547 478.43560745 -222.25095903 478.95505449 -224.86572266 479.57568359 C-227 480 -227 480 -231 480 C-230.85636473 478.62476865 -230.70996483 477.24982598 -230.5625 475.875 C-230.48128906 475.10929687 -230.40007812 474.34359375 -230.31640625 473.5546875 C-230 471 -230 471 -229.484375 468.4375 C-226.45709321 446.95356469 -229.16504233 425.11413356 -242.0078125 407.19921875 C-243.21490286 405.66714253 -244.44710306 404.15415642 -245.71484375 402.671875 C-247 401 -247 401 -247 399 C-246.02160156 398.70867187 -245.04320312 398.41734375 -244.03515625 398.1171875 C-232.4629578 394.55037352 -221.36029445 389.68400286 -214.71484375 378.91796875 C-209.94622424 369.70547442 -209.24514276 358.1466126 -211.89453125 348.09765625 C-212.59498468 345.89729194 -213.33409552 343.70855742 -214.125 341.5390625 C-215 339 -215 339 -215 336 C-214.36610352 335.96036133 -213.73220703 335.92072266 -213.07910156 335.87988281 C-187.89682224 334.31794428 -187.89682224 334.31794428 -167.5625 320.4375 C-164.94938415 317.14207057 -162.93469946 314.2202183 -163.0625 309.875 C-164.50301506 306.99396987 -166.04544052 306.22036153 -169 305 C-172.601001 305.2483449 -175.58205152 305.86068384 -179 307 C-179 307.66 -179 308.32 -179 309 C-179.66 309 -180.32 309 -181 309 C-181.09796875 308.29875 -181.1959375 307.5975 -181.296875 306.875 C-182.85645002 296.9797654 -185.25408049 290.95067459 -193 284.4453125 C-194.93281424 283.04855221 -196.83699632 281.99459544 -199 281 C-199 280.34 -199 279.68 -199 279 C-197.2421875 277.7734375 -197.2421875 277.7734375 -194.875 276.375 C-188.31922567 272.14213783 -183.77035031 266.72516498 -182 259 C-181.58792228 256.33361477 -181.27784475 253.68583261 -181 251 C-180.34 251 -179.68 251 -179 251 C-179 251.66 -179 252.32 -179 253 C-173.00798242 254.79130654 -173.00798242 254.79130654 -166.9375 254.125 C-166.298125 253.75375 -165.65875 253.3825 -165 253 C-165.66 252.67 -166.32 252.34 -167 252 C-166.53996835 248.8564504 -166.00063154 246.00178318 -164.9375 243 C-162.97383169 236.35030506 -162.70805038 228.10288756 -165.37109375 221.70703125 C-168.17820168 217.04198138 -171.86849728 214.62706184 -177 213 C-178.9924325 212.62406934 -180.9918674 212.28020455 -183 212 C-181.8789251 208.73869119 -180.42126967 206.08373107 -178.5 203.25 C-173.1454196 194.72702883 -173.35859173 185.74390134 -175 176 C-176.71566728 170.32652985 -178.96498058 165.02144639 -181.6640625 159.75 C-183 157 -183 157 -183 155 C-180.38102975 156.03229484 -177.78403285 157.09410859 -175.203125 158.21875 C-163.0751328 163.48063021 -152.16100647 166.18775018 -139.25390625 161.92578125 C-136.20554209 160.6736802 -133.66572777 158.92180374 -131 157 C-129.35380887 156.28426473 -127.69271945 155.5974304 -126 155 C-125.90203125 155.58007812 -125.8040625 156.16015625 -125.703125 156.7578125 C-124.43506548 163.38233032 -122.55595804 167.80068727 -117.3125 172.3125 C-108.65806388 176.72136368 -101.02286417 174.36090487 -92 172 C-90.33597845 171.65370362 -88.67013982 171.31547086 -87 171 C-86.86464844 171.99257812 -86.72929687 172.98515625 -86.58984375 174.0078125 C-85.04127892 184.13931355 -82.0855581 192.08285703 -77 201 C-76.57589844 199.97261719 -76.15179688 198.94523438 -75.71484375 197.88671875 C-67.61039781 178.61039781 -67.61039781 178.61039781 -61 172 C-64.26545761 170.11608215 -67.28111761 169.50712033 -71 169 C-70.39430886 165.6425269 -69.1972631 163.69833219 -67.0625 161.0625 C-61.50406675 154.19298667 -61.19252836 147.62002192 -62 139 C-64.83261381 127.9356964 -75.46409883 120.21538049 -84.69140625 114.59375 C-85.83416016 113.80484375 -85.83416016 113.80484375 -87 113 C-87 112.34 -87 111.68 -87 111 C-86.17757812 110.59910156 -85.35515625 110.19820313 -84.5078125 109.78515625 C-70.99438861 102.90360898 -62.02570497 95.1849463 -57.125 80.3515625 C-54.2167882 68.2461309 -57.49265184 56.0081283 -62.07421875 44.79296875 C-63 42 -63 42 -62 39 C-61.06800781 38.91363281 -60.13601562 38.82726563 -59.17578125 38.73828125 C-39.68394659 36.59004063 -21.72286437 27.96594476 -9.0859375 12.5703125 C-5.88308615 8.4973908 -2.87451315 4.31176973 0 0 Z " fill="#008E56" transform="translate(255,8)"/>
<path d="M0 0 C3.6804118 1.22680393 4.16393589 2.37004208 6.25 5.5625 C17.08510169 21.42094405 32.51139792 32.94202505 51.37890625 37.51171875 C55.56490256 38.29152432 59.75245516 38.73280087 64 39 C65 42 65 42 64.07421875 44.3125 C63.38779297 45.6428125 63.38779297 45.6428125 62.6875 47 C58.21990705 56.44541239 56.49797012 66.22166875 59.75390625 76.34375 C65.39921247 90.13813841 75.84247549 96.92514294 89 103 C87.49030849 106.70333167 85.3336357 108.67763944 82.3125 111.25 C73.09498373 119.41976981 65.28230227 127.89663271 63.48828125 140.6328125 C63.14821513 151.4914754 66.12016939 157.97353096 73 166 C73 166.99 73 167.98 73 169 C68.545 169.99 68.545 169.99 64 171 C64 173.87141726 65.40165921 175.03336315 67.125 177.3125 C81.0379156 197.04354394 82.83940555 219.68455603 80 243 C81.23363281 243.43699219 81.23363281 243.43699219 82.4921875 243.8828125 C104.21475794 251.85946077 120.55013159 266.01976375 130.30859375 287.08203125 C138.58650458 305.79551535 140.39079176 327.62225226 133 347 C124.28125401 368.88496008 109.03358935 384.90537751 87.5625 394.54296875 C68.69204205 402.13120715 46.94594592 402.89773889 27.96191406 395.17041016 C18.36645656 391.01267904 10.08052722 385.61134045 2 379 C-1.65465817 380.64766364 -4.70137548 382.8979095 -7.9375 385.25 C-26.65595186 398.40814934 -48.64550586 403.24181183 -71.2421875 399.375 C-92.75846418 394.28023681 -111.43488478 381.15741822 -123.3125 362.5625 C-132.65862144 346.6024902 -135.92302149 331.27666073 -135 313 C-134.94199219 311.8140625 -134.88398438 310.628125 -134.82421875 309.40625 C-133.38874413 294.60183707 -126.50516085 280.28980329 -117 269 C-116.47148437 268.31164062 -115.94296875 267.62328125 -115.3984375 266.9140625 C-106.34913763 255.63587104 -91.53016202 245.22905895 -77 243 C-77.32226562 241.72125 -77.64453125 240.4425 -77.9765625 239.125 C-82.52162885 218.53142503 -77.67448191 197.79599 -67 180 C-65.11559127 177.17338691 -63.17728216 174.6127386 -61 172 C-64.33311475 170.2175082 -67.24480943 169.51207144 -71 169 C-70.39430886 165.6425269 -69.1972631 163.69833219 -67.0625 161.0625 C-61.50406675 154.19298667 -61.19252836 147.62002192 -62 139 C-64.83261381 127.9356964 -75.46409883 120.21538049 -84.69140625 114.59375 C-85.45324219 114.0678125 -86.21507812 113.541875 -87 113 C-87 112.34 -87 111.68 -87 111 C-86.17757812 110.59910156 -85.35515625 110.19820313 -84.5078125 109.78515625 C-70.99438861 102.90360898 -62.02570497 95.1849463 -57.125 80.3515625 C-54.2167882 68.2461309 -57.49265184 56.0081283 -62.07421875 44.79296875 C-63 42 -63 42 -62 39 C-61.06800781 38.91363281 -60.13601562 38.82726563 -59.17578125 38.73828125 C-39.68394659 36.59004063 -21.72286437 27.96594476 -9.0859375 12.5703125 C-5.88308615 8.4973908 -2.87451315 4.31176973 0 0 Z " fill="#B81013" transform="translate(255,8)"/>
<path d="M0 0 C3.22484447 0.62685962 4.31025792 1.24060818 7.0625 3.375 C13.42929572 8.08861486 22.16916592 10.05169097 30 9 C37.69565588 7.52294783 44.81423072 5.07605721 52 2 C53.6652131 1.32971085 55.33151311 0.66209797 57 0 C55.83062745 3.93334405 54.28709268 7.50788145 52.5 11.1875 C47.22947321 22.61474835 46.96815142 33.07306411 50.77734375 44.96484375 C52.31573765 48.78379602 54.19404789 51.03816167 57 54 C57 54.99 57 55.98 57 57 C56.41992188 57.09796875 55.83984375 57.1959375 55.2421875 57.296875 C48.70072608 58.54903593 44.14602585 60.30963547 39.859375 65.68359375 C36.33287299 71.97351014 37.04169561 79.97512154 38.68359375 86.87109375 C39.19188427 88.35218908 39.73910132 89.82118649 40.34375 91.265625 C41 93 41 93 41 96 C39.02 96.99 39.02 96.99 37 98 C39.20035585 100.62350121 40.64137316 101.88554463 43.9375 102.9375 C47.60690212 103.01238576 49.04147981 102.07896013 52 100 C52.99 99.67 53.98 99.34 55 99 C55.09796875 99.70125 55.1959375 100.4025 55.296875 101.125 C56.85645002 111.0202346 59.25408049 117.04932541 67 123.5546875 C68.93281424 124.95144779 70.83699632 126.00540456 73 127 C73 127.66 73 128.32 73 129 C71.2421875 130.2265625 71.2421875 130.2265625 68.875 131.625 C62.31922567 135.85786217 57.77035031 141.27483502 56 149 C55.58792228 151.66638523 55.27784475 154.31416739 55 157 C54.34 157 53.68 157 53 157 C53 156.34 53 155.68 53 155 C48.55335763 153.20016856 45.64984257 152.68591406 41 154 C38.67780342 155.44730093 38.67780342 155.44730093 37 157 C37.33968712 163.79374236 41.01493775 168.21308964 45.82421875 172.703125 C58.28584306 182.71286785 73.71812662 183.27137868 89 184 C88.71122471 185.3547862 88.41879283 186.70879302 88.125 188.0625 C87.88136719 189.19365234 87.88136719 189.19365234 87.6328125 190.34765625 C87.15518631 192.3495586 86.57733808 194.32791543 85.953125 196.2890625 C83.62938929 205.33639417 83.57424613 216.34226942 87.6640625 224.85546875 C95.43893217 237.33618059 107.12295266 243.36834719 121 247 C119.71057005 250.64597433 118.19704413 253.19812592 115.6875 256.125 C102.86134378 272.33066211 101.4689716 293.1324634 103 313 C103.44585483 315.89990258 103.97058742 318.7609963 104.57568359 321.6315918 C105 324 105 324 105 328 C103.60386935 327.85704109 102.20810692 327.71048442 100.8125 327.5625 C100.03519531 327.48128906 99.25789062 327.40007812 98.45703125 327.31640625 C96 327 96 327 93.69726562 326.49511719 C73.39313229 322.76803696 52.58118969 326.47312617 35 337 C32.46284222 338.81882719 30.04357343 340.68641746 27.671875 342.71484375 C26 344 26 344 24 344 C23.6596875 343.05640625 23.319375 342.1128125 22.96875 341.140625 C17.01270301 325.15036598 8.34076806 310.97858784 -7.3984375 303.15234375 C-20.28585185 297.44395451 -34.16825217 299.07823371 -47 304 C-46.84063965 303.27707764 -46.6812793 302.55415527 -46.51708984 301.80932617 C-44.66143385 291.72762949 -43.72154457 277.68024807 -49.46875 268.8359375 C-49.9740625 268.23007812 -50.479375 267.62421875 -51 267 C-51.4846875 266.41476562 -51.969375 265.82953125 -52.46875 265.2265625 C-59.31033387 258.35144146 -69.69025751 256.6206495 -79 256 C-78.33144832 252.70231248 -77.39352116 250.40377178 -75 248 C-72.0464114 247.40473246 -69.26151522 247.2675808 -66.25537109 247.21533203 C-47.30397979 246.85079565 -28.5522792 237.89638057 -14.8671875 224.98828125 C-6.05896321 215.6446551 0.90282014 204.14693324 5 192 C5.31839844 191.06671875 5.63679688 190.1334375 5.96484375 189.171875 C11.78317826 168.68704751 8.24514401 147.2952659 -1.7421875 128.859375 C-12.83957631 109.38311782 -28.94200552 99.48507658 -49 91 C-48.83886719 89.70835937 -48.67773438 88.41671875 -48.51171875 87.0859375 C-47.977944 82.25456744 -47.80852197 77.48317334 -47.8125 72.625 C-47.81185547 71.79790527 -47.81121094 70.97081055 -47.81054688 70.11865234 C-47.85743236 64.67673882 -48.31577043 59.54247888 -49.5625 54.2265625 C-50.25926279 50.68053761 -50.63456916 48.10690219 -48.79296875 44.89453125 C-48.26316406 44.20746094 -47.73335938 43.52039063 -47.1875 42.8125 C-41.5347126 34.7522902 -40.39865224 25.57665413 -39 16 C-37.56206608 16.31049726 -36.1246682 16.6234776 -34.6875 16.9375 C-33.88699219 17.11152344 -33.08648437 17.28554687 -32.26171875 17.46484375 C-30 18 -30 18 -27 19 C-24.56637528 19.17241708 -22.12679404 19.26665768 -19.6875 19.3125 C-18.39199219 19.34988281 -17.09648437 19.38726562 -15.76171875 19.42578125 C-10.25484929 18.80246996 -7.25164828 16.49502433 -3.75 12.3125 C-1.62464669 8.28950981 -0.75290465 4.45798804 0 0 Z " fill="#008E56" transform="translate(383,160)"/>
<path d="M0 0 C3.6804118 1.22680393 4.16393589 2.37004208 6.25 5.5625 C17.08510169 21.42094405 32.51139792 32.94202505 51.37890625 37.51171875 C55.56490256 38.29152432 59.75245516 38.73280087 64 39 C65 42 65 42 64.07421875 44.3125 C63.38779297 45.6428125 63.38779297 45.6428125 62.6875 47 C58.21990705 56.44541239 56.49797012 66.22166875 59.75390625 76.34375 C65.39921247 90.13813841 75.84247549 96.92514294 89 103 C87.49030849 106.70333167 85.3336357 108.67763944 82.3125 111.25 C73.09498373 119.41976981 65.28230227 127.89663271 63.48828125 140.6328125 C63.14821513 151.4914754 66.12016939 157.97353096 73 166 C73 166.99 73 167.98 73 169 C68.98367105 170.15411751 65.19134674 170.97877799 61 171 C58.76204526 169.69222398 57.58116025 168.21045256 55.94921875 166.203125 C45.23659893 154.09507374 26.01210101 146.06999101 10.23291016 144.77246094 C-13.57226324 143.53814737 -34.61516804 149.34241187 -53 165 C-53.99323957 166.19679237 -54.97442145 167.40380529 -55.9375 168.625 C-59 171 -59 171 -62.02734375 170.921875 C-65.07430681 170.42412141 -68.01944139 169.80060312 -71 169 C-70.39430886 165.6425269 -69.1972631 163.69833219 -67.0625 161.0625 C-61.50406675 154.19298667 -61.19252836 147.62002192 -62 139 C-64.83261381 127.9356964 -75.46409883 120.21538049 -84.69140625 114.59375 C-85.45324219 114.0678125 -86.21507812 113.541875 -87 113 C-87 112.34 -87 111.68 -87 111 C-86.17757812 110.59910156 -85.35515625 110.19820313 -84.5078125 109.78515625 C-70.99438861 102.90360898 -62.02570497 95.1849463 -57.125 80.3515625 C-54.2167882 68.2461309 -57.49265184 56.0081283 -62.07421875 44.79296875 C-63 42 -63 42 -62 39 C-61.06800781 38.91363281 -60.13601562 38.82726563 -59.17578125 38.73828125 C-39.68394659 36.59004063 -21.72286437 27.96594476 -9.0859375 12.5703125 C-5.88308615 8.4973908 -2.87451315 4.31176973 0 0 Z " fill="#008E56" transform="translate(255,8)"/>
<path d="M0 0 C0.27972656 0.85980469 0.55945313 1.71960938 0.84765625 2.60546875 C5.73450832 17.01461135 12.19839956 28.29328917 23 39 C23.62261719 39.65613281 24.24523437 40.31226563 24.88671875 40.98828125 C32.9910405 48.91048341 44.64424431 53.69984389 55 58 C54.9278125 58.66902344 54.855625 59.33804688 54.78125 60.02734375 C51.92018886 89.63137911 58.54946464 111.23794688 77 135 C58.93067422 151.22858365 38.70230985 158.32842185 14.38671875 157.41015625 C-5.36853582 156.17135513 -24.61181075 146.02680286 -38.1875 131.8125 C-53.84262782 113.82152771 -60.18498771 93.46382912 -59 70 C-58.94199219 68.8140625 -58.88398437 67.628125 -58.82421875 66.40625 C-57.38874413 51.60183707 -50.50516085 37.28980329 -41 26 C-40.47148437 25.31164062 -39.94296875 24.62328125 -39.3984375 23.9140625 C-31.04105538 13.49821188 -14.06752798 0 0 0 Z " fill="#6E1415" transform="translate(179,251)"/>
<path d="M0 0 C15.09638966 12.49750051 27.29352072 31.49809659 29.77148438 51.17553711 C31.7406248 74.93708435 26.54301479 95.16811303 12.11914062 114.25756836 C6.18123924 119.10866583 -1.07324036 119.6570689 -8.47851562 119.48803711 C-9.30625488 119.47603271 -10.13399414 119.46402832 -10.98681641 119.45166016 C-34.66002074 118.91164821 -54.55744466 109.57614983 -70.91601562 92.48803711 C-85.97242799 75.01184419 -91.40234188 53.79305517 -90.22851562 31.17553711 C-88.83784068 14.83419399 -82.3568382 0.9116117 -72.22851562 -11.82446289 C-71.56851562 -12.81446289 -70.90851563 -13.80446289 -70.22851562 -14.82446289 C-47.8046151 -23.45258922 -18.0893125 -14.10684707 0 0 Z " fill="#EA2335" transform="translate(362.228515625,264.824462890625)"/>
<path d="M0 0 C2.38229915 1.33017965 4.24130536 2.71446103 6.2890625 4.5078125 C19.20050808 14.74718739 34.34737612 19.24470929 50.4765625 21.3828125 C49.86378638 24.34456373 49.22283728 25.76340033 47.4765625 28.3828125 C48.22679687 28.48078125 48.97703125 28.57875 49.75 28.6796875 C59.50900959 30.10543701 67.7535046 32.01445102 74.90625 39.11328125 C79.97344076 46.43675844 81.05586813 52.90258477 80.7890625 61.6953125 C80.77939453 62.67048828 80.76972656 63.64566406 80.75976562 64.65039062 C80.69541765 68.72669471 80.60379751 72.44514858 79.4765625 76.3828125 C80.1571875 76.0940625 80.8378125 75.8053125 81.5390625 75.5078125 C90.29316603 72.1551771 98.23290036 71.68925359 107.4765625 72.3828125 C109.28954255 74.19579255 109.15211255 76.99462948 109.5390625 79.4453125 C109.71566406 80.55003906 109.89226562 81.65476562 110.07421875 82.79296875 C110.20699219 83.64761719 110.33976563 84.50226563 110.4765625 85.3828125 C109.67734375 85.20363281 108.878125 85.02445312 108.0546875 84.83984375 C97.52419203 82.80048723 89.30011917 83.6016135 80.2265625 89.5703125 C78.96378432 90.49052852 77.7084163 91.42159324 76.4765625 92.3828125 C76.31800781 91.76792969 76.15945313 91.15304687 75.99609375 90.51953125 C74.5257605 85.38886267 74.5257605 85.38886267 71.2890625 81.2578125 C64.54990534 79.16118583 57.82717767 82.04543331 51.4765625 84.3828125 C51.51136719 83.52558594 51.54617188 82.66835938 51.58203125 81.78515625 C51.73874611 75.16581916 51.7304515 70.21269696 48.4765625 64.3828125 C43.32651487 66.95783631 39.98268143 68.95288816 37.4765625 74.3828125 C37.30724366 79.7163559 38.03295907 82.25202687 41.5390625 86.2578125 C42.08691406 86.81210937 42.63476562 87.36640625 43.19921875 87.9375 C44.4765625 89.3828125 44.4765625 89.3828125 44.4765625 91.3828125 C43.53296875 91.46917969 42.589375 91.55554688 41.6171875 91.64453125 C28.55570445 93.07395058 14.94079771 96.62133281 6.1796875 107.140625 C2.53102163 112.07526116 2.53102163 112.07526116 -0.5234375 117.3828125 C-1.1834375 117.3828125 -1.8434375 117.3828125 -2.5234375 117.3828125 C-3.60154099 115.73131324 -4.61016304 114.03426149 -5.5859375 112.3203125 C-11.85980894 102.19360715 -21.1295809 96.69310178 -32.4609375 93.6953125 C-37.47839207 92.52223545 -42.39162675 91.8104634 -47.5234375 91.3828125 C-46.35053369 88.87921513 -45.35567205 87.19979565 -43.4609375 85.1328125 C-40.96972418 81.59689682 -40.17570306 78.69980836 -40.5234375 74.3828125 C-42.84118886 69.56188966 -45.81726137 66.88609768 -50.5234375 64.3828125 C-51.5134375 64.7128125 -52.5034375 65.0428125 -53.5234375 65.3828125 C-55.47409175 69.7362594 -55.74491873 73.53023201 -55.6484375 78.2578125 C-55.63039062 79.41023438 -55.61234375 80.56265625 -55.59375 81.75 C-55.57054687 82.61882812 -55.54734375 83.48765625 -55.5234375 84.3828125 C-56.38066406 84.08246094 -57.23789063 83.78210938 -58.12109375 83.47265625 C-66.74660447 80.34082138 -66.74660447 80.34082138 -75.5234375 81.3828125 C-78.81091593 84.33020695 -79.47732325 88.19835549 -80.5234375 92.3828125 C-81.03390625 91.98449219 -81.544375 91.58617187 -82.0703125 91.17578125 C-90.48236102 85.04572462 -98.39547233 82.62733733 -108.7734375 84.1953125 C-110.69485185 84.56741739 -112.61372875 84.95466812 -114.5234375 85.3828125 C-114.21584572 83.40287709 -113.9022307 81.42387651 -113.5859375 79.4453125 C-113.41191406 78.34316406 -113.23789063 77.24101562 -113.05859375 76.10546875 C-112.5234375 73.3828125 -112.5234375 73.3828125 -111.5234375 72.3828125 C-101.13492304 71.65358421 -92.22483177 72.19569821 -82.5234375 76.3828125 C-82.68279785 75.82287598 -82.8421582 75.26293945 -83.00634766 74.68603516 C-85.00116663 65.80070835 -85.38094247 52.76872088 -81.5234375 44.4453125 C-77.21188962 37.7222209 -71.15629607 32.76026025 -63.5234375 30.3828125 C-59.20527862 29.58202717 -54.87934805 28.93958302 -50.5234375 28.3828125 C-51.0184375 27.7846875 -51.5134375 27.1865625 -52.0234375 26.5703125 C-53.5234375 24.3828125 -53.5234375 24.3828125 -53.5234375 21.3828125 C-52.98041992 21.28782471 -52.43740234 21.19283691 -51.87792969 21.0949707 C-33.82168768 17.8760998 -18.51788029 13.01570657 -4.62890625 0.5078125 C-2.5234375 -0.6171875 -2.5234375 -0.6171875 0 0 Z " fill="#007044" transform="translate(257.5234375,386.6171875)"/>
<path d="M0 0 C3.22484447 0.62685962 4.31025792 1.24060818 7.0625 3.375 C13.42929572 8.08861486 22.16916592 10.05169097 30 9 C37.69565588 7.52294783 44.81423072 5.07605721 52 2 C53.6652131 1.32971085 55.33151311 0.66209797 57 0 C55.83062745 3.93334405 54.28709268 7.50788145 52.5 11.1875 C47.22947321 22.61474835 46.96815142 33.07306411 50.77734375 44.96484375 C52.31573765 48.78379602 54.19404789 51.03816167 57 54 C57 54.99 57 55.98 57 57 C56.41992188 57.09796875 55.83984375 57.1959375 55.2421875 57.296875 C48.70072608 58.54903593 44.14602585 60.30963547 39.859375 65.68359375 C36.33287299 71.97351014 37.04169561 79.97512154 38.68359375 86.87109375 C39.19188427 88.35218908 39.73910132 89.82118649 40.34375 91.265625 C41 93 41 93 41 96 C39.02 96.99 39.02 96.99 37 98 C39.20035585 100.62350121 40.64137316 101.88554463 43.9375 102.9375 C47.60690212 103.01238576 49.04147981 102.07896013 52 100 C52.99 99.67 53.98 99.34 55 99 C55.09796875 99.70125 55.1959375 100.4025 55.296875 101.125 C56.85645002 111.0202346 59.25408049 117.04932541 67 123.5546875 C68.93281424 124.95144779 70.83699632 126.00540456 73 127 C73 127.66 73 128.32 73 129 C71.2421875 130.2265625 71.2421875 130.2265625 68.875 131.625 C62.31922567 135.85786217 57.77035031 141.27483502 56 149 C55.58792228 151.66638523 55.27784475 154.31416739 55 157 C54.34 157 53.68 157 53 157 C53 156.34 53 155.68 53 155 C48.53757939 153.19378213 45.65541956 152.64216929 41 154 C37.69140528 155.95456777 37.69140528 155.95456777 35 158 C34.01 154.04 33.02 150.08 32 146 C30.411875 147.093125 28.82375 148.18625 27.1875 149.3125 C21.41654312 153.00531437 14.99964694 156 8 156 C7.70609375 154.65421875 7.70609375 154.65421875 7.40625 153.28125 C2.52877349 132.93039972 -8.07496746 113.69569471 -26 102 C-33.36458598 97.71442422 -41.16363879 94.31499368 -49 91 C-48.83886719 89.70835937 -48.67773438 88.41671875 -48.51171875 87.0859375 C-47.977944 82.25456744 -47.80852197 77.48317334 -47.8125 72.625 C-47.81185547 71.79790527 -47.81121094 70.97081055 -47.81054688 70.11865234 C-47.85743236 64.67673882 -48.31577043 59.54247888 -49.5625 54.2265625 C-50.25926279 50.68053761 -50.63456916 48.10690219 -48.79296875 44.89453125 C-48.26316406 44.20746094 -47.73335938 43.52039063 -47.1875 42.8125 C-41.5347126 34.7522902 -40.39865224 25.57665413 -39 16 C-37.56206608 16.31049726 -36.1246682 16.6234776 -34.6875 16.9375 C-33.88699219 17.11152344 -33.08648437 17.28554687 -32.26171875 17.46484375 C-30 18 -30 18 -27 19 C-24.56637528 19.17241708 -22.12679404 19.26665768 -19.6875 19.3125 C-18.39199219 19.34988281 -17.09648437 19.38726562 -15.76171875 19.42578125 C-10.25484929 18.80246996 -7.25164828 16.49502433 -3.75 12.3125 C-1.62464669 8.28950981 -0.75290465 4.45798804 0 0 Z " fill="#00492C" transform="translate(383,160)"/>
<path d="M0 0 C2.61897025 1.03229484 5.21596715 2.09410859 7.796875 3.21875 C19.9248672 8.48063021 30.83899353 11.18775018 43.74609375 6.92578125 C46.79445791 5.6736802 49.33427223 3.92180374 52 2 C53.64619113 1.28426473 55.30728055 0.5974304 57 0 C57.09796875 0.58007812 57.1959375 1.16015625 57.296875 1.7578125 C58.56493452 8.38233032 60.44404196 12.80068727 65.6875 17.3125 C74.34193612 21.72136368 81.97713583 19.36090487 91 17 C92.66402155 16.65370362 94.32986018 16.31547086 96 16 C96.13535156 16.99257812 96.27070313 17.98515625 96.41015625 19.0078125 C97.78292071 27.99307875 100.1219603 35.22359388 104.4765625 43.20703125 C106.55304614 47.01391793 107.21350417 48.91911968 106.07421875 53.03125 C104.82288504 58.23444082 104.73879207 63.16975303 104.8125 68.5 C104.81314453 69.38558594 104.81378906 70.27117187 104.81445312 71.18359375 C104.85194761 76.85775917 105.28497754 82.37134323 106 88 C104.82824219 88.4846875 103.65648437 88.969375 102.44921875 89.46875 C93.12282449 93.41254489 84.85995226 97.49658773 77 104 C76.31035156 104.51691406 75.62070313 105.03382813 74.91015625 105.56640625 C61.06784762 116.50320059 52.00789608 134.9631304 49.5 152.1875 C49.30540489 154.12239451 49.12662501 156.05947169 49 158 C48.67 158 48.34 158 48 158 C47.505 155.525 47.505 155.525 47 153 C46.00033203 152.79697266 46.00033203 152.79697266 44.98046875 152.58984375 C37.16290085 150.7639223 31.60464189 147.54605221 25 143 C24.01 146.96 23.02 150.92 22 155 C20.824375 154.154375 19.64875 153.30875 18.4375 152.4375 C15.16529671 150.37786849 14.21911661 149.99281585 10.1875 150.125 C8.10926389 150.69549619 6.04452394 151.31849202 4 152 C4 152.66 4 153.32 4 154 C3.34 154 2.68 154 2 154 C1.90203125 153.29875 1.8040625 152.5975 1.703125 151.875 C0.14354998 141.9797654 -2.25408049 135.95067459 -10 129.4453125 C-11.93281424 128.04855221 -13.83699632 126.99459544 -16 126 C-16 125.34 -16 124.68 -16 124 C-14.2421875 122.7734375 -14.2421875 122.7734375 -11.875 121.375 C-5.31922567 117.14213783 -0.77035031 111.72516498 1 104 C1.41207772 101.33361477 1.72215525 98.68583261 2 96 C2.66 96 3.32 96 4 96 C4 96.66 4 97.32 4 98 C9.99201758 99.79130654 9.99201758 99.79130654 16.0625 99.125 C16.701875 98.75375 17.34125 98.3825 18 98 C17.01 97.505 17.01 97.505 16 97 C16.46003165 93.8564504 16.99936846 91.00178318 18.0625 88 C20.02616831 81.35030506 20.29194962 73.10288756 17.62890625 66.70703125 C14.82179832 62.04198138 11.13150272 59.62706184 6 58 C4.0075675 57.62406934 2.0081326 57.28020455 0 57 C1.1210749 53.73869119 2.57873033 51.08373107 4.5 48.25 C9.8545804 39.72702883 9.64140827 30.74390134 8 21 C6.28433272 15.32652985 4.03501942 10.02144639 1.3359375 4.75 C0 2 0 2 0 0 Z " fill="#00492C" transform="translate(72,163)"/>
<path d="M0 0 C0.07476562 0.65484375 0.14953125 1.3096875 0.2265625 1.984375 C1.79511117 12.87194814 5.74661765 22.28984579 14.453125 29.31640625 C27.07700744 37.66133467 41.38234855 38.30304799 56 39 C55.71122471 40.3547862 55.41879283 41.70879302 55.125 43.0625 C54.96257812 43.81660156 54.80015625 44.57070313 54.6328125 45.34765625 C54.15518631 47.3495586 53.57733808 49.32791543 52.953125 51.2890625 C50.62938929 60.33639417 50.57424613 71.34226942 54.6640625 79.85546875 C62.43893217 92.33618059 74.12295266 98.36834719 88 102 C86.71057005 105.64597433 85.19704413 108.19812592 82.6875 111.125 C69.87351297 127.31528652 68.44393 148.14545833 70 168 C70.47926904 170.90100904 71.03010942 173.76271994 71.67333984 176.6315918 C72.01253657 179.09089482 71.7715721 180.66195394 71 183 C68.10057163 180.4216327 65.26574501 177.78109096 62.4375 175.125 C61.61830078 174.39796875 60.79910156 173.6709375 59.95507812 172.921875 C57.63263673 170.70632421 55.69609235 168.72915156 54 166 C53.93902334 163.35494515 54.36934835 161.12162544 54.91792393 158.54142761 C55.23280452 155.98495749 55.23280452 155.98495749 53.82215023 154.06837463 C53.24154119 153.46001266 52.66093214 152.8516507 52.06272888 152.22485352 C51.08985837 151.18965576 51.08985837 151.18965576 50.09733391 150.13354492 C49.40521372 149.4294751 48.71309353 148.72540527 48 148 C47.34858095 147.32525635 46.6971619 146.6505127 46.02600288 145.95532227 C43.89804402 143.7751086 41.74558358 141.62171968 39.58618164 139.47265625 C38.37032883 138.2565844 38.37032883 138.2565844 37.12991333 137.01594543 C34.47569354 134.36241698 31.81795961 131.71243867 29.16015625 129.0625 C27.30906164 127.21327234 25.45818908 125.36382237 23.60752869 123.51416016 C19.25006458 119.15978976 14.89006035 114.8079722 10.52911133 110.45709229 C5.55969722 105.49890056 0.5931617 100.53782961 -4.37314785 95.57652855 C-14.57892453 85.38117181 -24.78826679 75.1893906 -35 65 C-33.70120072 61.03374848 -32.26377097 57.24813497 -30.5625 53.4375 C-24.78239562 39.45612657 -24.34691733 25.95577845 -24 11 C-23.4119458 10.81244141 -22.8238916 10.62488281 -22.21801758 10.43164062 C-17.89343223 9.02624995 -13.74727359 7.57307588 -9.6875 5.5 C-8.48673828 4.89671875 -8.48673828 4.89671875 -7.26171875 4.28125 C-5.17808568 3.10088446 -2.355944 0 0 0 Z " fill="#00C376" transform="translate(416,305)"/>
<path d="M0 0 C1.010625 0.5775 2.02125 1.155 3.0625 1.75 C3.70574219 2.11351562 4.34898438 2.47703125 5.01171875 2.8515625 C6.82535995 3.89912736 8.60261455 5.00905361 10.375 6.125 C13.82837566 8.12638816 17.27532148 8.89738881 21.1796875 9.60546875 C23 10 23 10 24 11 C24.10934381 12.5193332 24.15586634 14.04327367 24.17578125 15.56640625 C24.53441441 31.94167941 26.18694344 45.69505078 34.0234375 60.328125 C35 63 35 63 34.28207493 64.93134117 C32.87736623 67.19787255 31.35365323 68.88943091 29.46336365 70.77041626 C28.73002808 71.505056 27.9966925 72.23969574 27.24113464 72.99659729 C26.43638199 73.79258835 25.63162933 74.58857941 24.80249023 75.40869141 C23.95524384 76.25462357 23.10799744 77.10055573 22.2350769 77.97212219 C19.9143314 80.28749144 17.58924234 82.5983928 15.26231265 84.90754366 C12.82856143 87.32505547 10.40087811 89.74864375 7.97267151 92.17172241 C3.37363714 96.75938328 -1.23004754 101.34234474 -5.83578199 105.92327821 C-14.0897814 114.13291241 -22.33817045 122.34817439 -30.58138508 130.56863725 C-33.00025951 132.98047509 -35.42041408 135.39100272 -37.84335518 137.79875565 C-40.54162691 140.48044094 -43.23701117 143.16499822 -45.93188477 145.85009766 C-46.73866165 146.65013718 -47.54543854 147.4501767 -48.37666321 148.27445984 C-49.47243683 149.36795998 -49.47243683 149.36795998 -50.59034729 150.48355103 C-51.54742002 151.43534461 -51.54742002 151.43534461 -52.52382755 152.40636635 C-54.63561169 154.68618825 -54.98792494 155.72227351 -55.125 158.875 C-55.17080204 161.85773282 -55.17080204 161.85773282 -54.26586914 163.93847656 C-54 166 -54 166 -55.44702148 168.01464844 C-56.16446533 168.7059082 -56.88190918 169.39716797 -57.62109375 170.109375 C-58.39130859 170.86347656 -59.16152344 171.61757813 -59.95507812 172.39453125 C-60.77427734 173.17183594 -61.59347656 173.94914063 -62.4375 174.75 C-63.25283203 175.54277344 -64.06816406 176.33554687 -64.90820312 177.15234375 C-66.92810392 179.11318312 -68.95872128 181.0614649 -71 183 C-72.10337157 179.65652306 -71.8504425 177.42148729 -71.0859375 174.01171875 C-66.91303539 152.79887993 -69.90170187 131.5355394 -81 113 C-82.81882719 110.46284222 -84.68641746 108.04357343 -86.71484375 105.671875 C-88 104 -88 104 -88 102 C-87.02160156 101.70867187 -86.04320313 101.41734375 -85.03515625 101.1171875 C-73.4629578 97.55037352 -62.36029445 92.68400286 -55.71484375 81.91796875 C-50.94622424 72.70547442 -50.24514276 61.1466126 -52.89453125 51.09765625 C-53.59498468 48.89729194 -54.33409552 46.70855742 -55.125 44.5390625 C-56 42 -56 42 -56 39 C-55.36610352 38.96036133 -54.73220703 38.92072266 -54.07910156 38.87988281 C-29.2069597 37.26158492 -29.2069597 37.26158492 -8.75 23.9375 C-3.50794624 17.38128234 -0.58056807 8.32147563 0 0 Z " fill="#00C376" transform="translate(96,305)"/>
<path d="M0 0 C2.66678915 2.66678915 4.73079242 4.83847197 6.875 7.8125 C7.91587614 9.20892293 8.95752594 10.60476956 10 12 C10.64195312 12.87011719 10.64195312 12.87011719 11.296875 13.7578125 C21.7340213 26.95773282 39.39432765 36.15050753 55.90234375 38.39453125 C58.26802618 38.64337583 60.62620878 38.85067257 63 39 C64 42 64 42 63.07421875 44.3125 C62.61660156 45.199375 62.15898437 46.08625 61.6875 47 C57.21990705 56.44541239 55.49797012 66.22166875 58.75390625 76.34375 C64.39921247 90.13813841 74.84247549 96.92514294 88 103 C86.49030849 106.70333167 84.3336357 108.67763944 81.3125 111.25 C72.09498373 119.41976981 64.28230227 127.89663271 62.48828125 140.6328125 C62.14821513 151.4914754 65.12016939 157.97353096 72 166 C72 166.99 72 167.98 72 169 C67.98367105 170.15411751 64.19134674 170.97877799 60 171 C57.76204526 169.69222398 56.58116025 168.21045256 54.94921875 166.203125 C45.39708354 155.40672368 30.65864953 149.77777972 17.0703125 146.328125 C15.75752319 145.989021 15.75752319 145.989021 14.41821289 145.64306641 C12.27981647 145.09131634 10.14044674 144.54373108 8 144 C7.99668985 143.45131602 7.99337971 142.90263205 7.98996925 142.33732128 C7.90878088 128.99220083 7.8165764 115.64719575 7.71247292 102.3022337 C7.66246368 95.84872792 7.61613404 89.39523889 7.578125 82.94165039 C7.5413307 76.71705022 7.49498672 70.49258858 7.44193649 64.26810646 C7.42336137 61.88981359 7.40826503 59.51149099 7.39665604 57.13315392 C7.37984699 53.80957131 7.35082472 50.48630814 7.31884766 47.1628418 C7.31668747 46.1730986 7.31452728 45.18335541 7.31230164 44.16362 C7.30113815 43.25918152 7.28997467 42.35474304 7.2784729 41.42289734 C7.27294214 40.63660792 7.26741138 39.85031851 7.26171303 39.04020214 C7.11370332 36.68920221 7.11370332 36.68920221 5 34 C3.35 33.34 1.7 32.68 0 32 C0 21.44 0 10.88 0 0 Z " fill="#00C376" transform="translate(256,8)"/>
<path d="M0 0 C0 38.94 0 77.88 0 118 C-4 113 -4 113 -5.53515625 110.7890625 C-11.67667378 102.0872704 -20.54465911 96.21922034 -31 94 C-35.98936733 93.20930789 -40.98029661 92.56215387 -46 92 C-44.82709619 89.49640263 -43.83223455 87.81698315 -41.9375 85.75 C-39.44628668 82.21408432 -38.65226556 79.31699586 -39 75 C-41.31775136 70.17907716 -44.29382387 67.50328518 -49 65 C-49.99 65.33 -50.98 65.66 -52 66 C-53.95065425 70.3534469 -54.22148123 74.14741951 -54.125 78.875 C-54.10695312 80.02742188 -54.08890625 81.17984375 -54.0703125 82.3671875 C-54.04710937 83.23601562 -54.02390625 84.10484375 -54 85 C-54.85722656 84.69964844 -55.71445313 84.39929688 -56.59765625 84.08984375 C-65.22316697 80.95800888 -65.22316697 80.95800888 -74 82 C-77.28747843 84.94739445 -77.95388575 88.81554299 -79 93 C-79.51046875 92.60167969 -80.0209375 92.20335937 -80.546875 91.79296875 C-88.95892352 85.66291212 -96.87203483 83.24452483 -107.25 84.8125 C-109.17141435 85.18460489 -111.09029125 85.57185562 -113 86 C-112.69240822 84.02006459 -112.3787932 82.04106401 -112.0625 80.0625 C-111.88847656 78.96035156 -111.71445313 77.85820312 -111.53515625 76.72265625 C-111 74 -111 74 -110 73 C-99.61148554 72.27077171 -90.70139427 72.81288571 -81 77 C-81.15936035 76.44006348 -81.3187207 75.88012695 -81.48291016 75.30322266 C-83.47772913 66.41789585 -83.85750497 53.38590838 -80 45.0625 C-75.68845212 38.3394084 -69.63285857 33.37744775 -62 31 C-57.68184112 30.19921467 -53.35591055 29.55677052 -49 29 C-49.495 28.401875 -49.99 27.80375 -50.5 27.1875 C-52 25 -52 25 -52 22 C-51.45698242 21.90501221 -50.91396484 21.81002441 -50.35449219 21.7121582 C-32.04278451 18.44774565 -17.31596182 13.17570186 -2.71484375 1.3203125 C-1 0 -1 0 0 0 Z " fill="#00492D" transform="translate(256,386)"/>
<path d="M0 0 C18.25661647 14.09618813 28.14476243 32.48938605 31.125 55.125 C31.30704305 58.18411471 31.28912748 61.06128705 31.125 64.125 C30.17238281 63.57070312 29.21976563 63.01640625 28.23828125 62.4453125 C26.97145443 61.71336811 25.70452173 60.98160695 24.4375 60.25 C23.81166016 59.88519531 23.18582031 59.52039063 22.54101562 59.14453125 C15.81315049 55.19907767 15.81315049 55.19907767 8.1875 54.3125 C4.41826985 54.38348362 2.23423903 53.4532464 -0.6015625 50.8125 C-2.08451273 48.8473635 -2.70662015 47.01265283 -3.5 44.6875 C-5.67813705 39.11808628 -9.64782027 37.96015856 -14.8828125 35.65625 C-19.25632568 33.41810749 -22.36346997 30.34339511 -24.875 26.125 C-25.55078125 23.37890625 -25.55078125 23.37890625 -25.875 21.125 C-26.98875 20.91875 -28.1025 20.7125 -29.25 20.5 C-30.44625 20.04625 -31.6425 19.5925 -32.875 19.125 C-34.1015625 16.0390625 -34.1015625 16.0390625 -34.875 13.125 C-35.68582031 13.3415625 -36.49664062 13.558125 -37.33203125 13.78125 C-49.54307837 16.85178106 -58.79686225 16.66623411 -70.875 13.125 C-71.5628236 15.47867713 -71.5628236 15.47867713 -71.875 18.125 C-71.215 19.115 -70.555 20.105 -69.875 21.125 C-70.53886719 21.51171875 -71.20273438 21.8984375 -71.88671875 22.296875 C-82.03570198 28.2825527 -88.95965752 34.40513696 -93.875 45.375 C-96.14531652 50.24137411 -100.09338884 53.73419442 -104.875 56.125 C-110.78644838 56.9835091 -115.2440792 56.20894192 -120.140625 52.7421875 C-123.0536215 50.02601509 -125.01672952 47.03114441 -125.875 43.125 C-125.55677771 37.46470567 -123.8065426 33.19169686 -121.25 28.25 C-120.89099609 27.54746094 -120.53199219 26.84492188 -120.16210938 26.12109375 C-117.27917475 20.61962062 -114.05884481 15.73652672 -109.875 11.125 C-109.29492188 10.465 -108.71484375 9.805 -108.1171875 9.125 C-79.13960551 -21.91374891 -33.74921251 -23.48184645 0 0 Z " fill="#E92435" transform="translate(304.875,167.875)"/>
<path d="M0 0 C4.45438539 2.66807043 7.17944022 5.58177642 9.9765625 9.93359375 C16.73051918 20.28966065 30.38485566 25.6521691 41.6015625 29.99609375 C41.529375 30.66511719 41.4571875 31.33414063 41.3828125 32.0234375 C39.48243844 51.6870302 39.7006956 72.44926197 51.31640625 89.515625 C52.6015625 91.99609375 52.6015625 91.99609375 52.5 94.56640625 C49.44611315 102.8251785 39.82824858 107.83049304 32.6015625 111.99609375 C31.82941406 112.4446875 31.05726563 112.89328125 30.26171875 113.35546875 C25.2032524 116.1060687 25.2032524 116.1060687 22.37890625 115.58984375 C21.79238281 115.39390625 21.20585937 115.19796875 20.6015625 114.99609375 C25.3515625 111.99609375 25.3515625 111.99609375 27.6015625 111.99609375 C27.9109375 111.21234375 28.2203125 110.42859375 28.5390625 109.62109375 C29.6015625 106.99609375 29.6015625 106.99609375 30.6015625 104.99609375 C31.04300356 99.87537741 30.88696803 95.60508566 28.41015625 91.0234375 C23.82536866 85.88411836 16.07419817 82.15363897 9.6015625 79.99609375 C9.1684375 81.17171875 9.1684375 81.17171875 8.7265625 82.37109375 C7.6015625 84.99609375 7.6015625 84.99609375 5.6015625 86.99609375 C1.70833658 87.8361259 -1.92522902 87.67275732 -5.55859375 86.00390625 C-11.89957596 81.67884324 -15.9899225 75.22163874 -18.3984375 67.99609375 C-19.56512805 56.80177174 -19.56512805 56.80177174 -17.12890625 53.03125 C-14.99290778 51.23825858 -13.24803977 49.99609375 -10.3984375 49.99609375 C-10.26566406 48.92230469 -10.13289062 47.84851563 -9.99609375 46.7421875 C-9.81774186 45.30598542 -9.63935455 43.86978774 -9.4609375 42.43359375 C-9.37392578 41.72912109 -9.28691406 41.02464844 -9.19726562 40.29882812 C-8.64459259 35.85697448 -8.04449154 31.42534711 -7.3984375 26.99609375 C-8.23375 26.68671875 -8.23375 26.68671875 -9.0859375 26.37109375 C-13.41439155 23.79741837 -16.4933731 19.62388294 -18.3984375 14.99609375 C-18.97931881 11.24829224 -19.00799466 7.74209955 -18.3984375 3.99609375 C-13.77430348 -2.20998086 -7.04784794 -2.94999499 0 0 Z " fill="#901A1C" transform="translate(160.3984375,287.00390625)"/>
<path d="M0 0 C3.22484447 0.62685962 4.31025792 1.24060818 7.0625 3.375 C13.42929572 8.08861486 22.16916592 10.05169097 30 9 C37.69565588 7.52294783 44.81423072 5.07605721 52 2 C53.6652131 1.32971085 55.33151311 0.66209797 57 0 C57 0.66 57 1.32 57 2 C55.55947113 3.4210825 55.55947113 3.4210825 53.5501709 5.08192444 C48.86708302 9.06770587 44.53385789 13.3325094 40.19726562 17.68920898 C38.9373027 18.94895287 38.9373027 18.94895287 37.65188599 20.23414612 C34.9009611 22.98576266 32.15358632 25.74089462 29.40625 28.49609375 C27.49004105 30.41472856 25.57307562 32.33260686 23.65612793 34.25050354 C19.14238616 38.76733977 14.63119715 43.28671649 10.1209445 47.80703646 C4.98137654 52.95782445 -0.16106858 58.1057359 -5.30374432 63.25342071 C-15.87234281 73.83244085 -26.43726275 84.41512739 -37 95 C-40.63 94.01 -44.26 93.02 -48 92 C-48.93773296 87.31133518 -48.89239471 86.28592289 -48 82 C-47.81928895 78.95840256 -47.81010741 75.92136953 -47.8125 72.875 C-47.81185547 72.0298584 -47.81121094 71.1847168 -47.81054688 70.31396484 C-47.85700316 64.8036154 -48.30005656 59.60948105 -49.5625 54.2265625 C-50.25926279 50.68053761 -50.63456916 48.10690219 -48.79296875 44.89453125 C-48.26316406 44.20746094 -47.73335938 43.52039063 -47.1875 42.8125 C-41.5347126 34.7522902 -40.39865224 25.57665413 -39 16 C-37.56206608 16.31049726 -36.1246682 16.6234776 -34.6875 16.9375 C-33.88699219 17.11152344 -33.08648437 17.28554687 -32.26171875 17.46484375 C-30 18 -30 18 -27 19 C-24.56637528 19.17241708 -22.12679404 19.26665768 -19.6875 19.3125 C-18.39199219 19.34988281 -17.09648437 19.38726562 -15.76171875 19.42578125 C-10.25484929 18.80246996 -7.25164828 16.49502433 -3.75 12.3125 C-1.62464669 8.28950981 -0.75290465 4.45798804 0 0 Z " fill="#007044" transform="translate(383,160)"/>
<path d="M0 0 C21.55874848 5.59388881 39.19253304 18.15221138 50.66455078 37.27880859 C61.40504454 56.12515816 65.14262602 77.12314838 59.71484375 98.3828125 C55.82729367 112.20521277 55.82729367 112.20521277 51.02734375 115.2578125 C50.43953125 115.64710938 49.85171875 116.03640625 49.24609375 116.4375 C44.58027684 119.0036993 39.70499058 118.9563116 34.52734375 118.3828125 C29.68199548 116.04986704 26.79299765 113.26268243 24.52734375 108.3828125 C23.36919514 100.52394693 25.04411494 93.91032864 27.578125 86.50390625 C28.70151131 82.81013809 29.08542655 79.34653946 29.25390625 75.50390625 C29.57029951 73.04959854 30.20783915 71.47276609 31.52734375 69.3828125 C32.51734375 68.7434375 33.50734375 68.1040625 34.52734375 67.4453125 C37.88574561 65.13641122 38.73810076 64.32902745 39.52734375 60.3828125 C39.79379818 51.98949796 36.41621918 44.69445019 30.96484375 38.4453125 C30.16046875 37.7646875 29.35609375 37.0840625 28.52734375 36.3828125 C27.94984375 35.7846875 27.37234375 35.1865625 26.77734375 34.5703125 C23.14819596 32.65492895 19.53215535 32.70584257 15.52734375 33.3828125 C12.50043932 35.19872229 12.50043932 35.19872229 10.52734375 37.3828125 C10.01945312 37.11726563 9.5115625 36.85171875 8.98828125 36.578125 C8.29992187 36.22492188 7.6115625 35.87171875 6.90234375 35.5078125 C5.89300781 34.98574219 5.89300781 34.98574219 4.86328125 34.453125 C-0.21952654 32.12421307 -4.85816544 31.1481354 -10.41015625 30.6328125 C-15.86371299 29.89568973 -19.43518325 29.03581444 -23.26953125 25.0078125 C-26.83830892 20.18764526 -26.80400427 15.53359663 -26.0859375 9.7890625 C-22.9294634 -2.59557475 -10.24732578 -1.8212345 0 0 Z " fill="#FD4657" transform="translate(330.47265625,249.6171875)"/>
<path d="M0 0 C0.14695312 0.87011719 0.14695312 0.87011719 0.296875 1.7578125 C1.56493452 8.38233032 3.44404196 12.80068727 8.6875 17.3125 C17.34193612 21.72136368 24.97713583 19.36090487 34 17 C35.66402155 16.65370362 37.32986018 16.31547086 39 16 C39.13535156 16.99257812 39.27070313 17.98515625 39.41015625 19.0078125 C40.78292071 27.99307875 43.1219603 35.22359388 47.4765625 43.20703125 C49.55304614 47.01391793 50.21350417 48.91911968 49.07421875 53.03125 C47.82288504 58.23444082 47.73879207 63.16975303 47.8125 68.5 C47.81314453 69.38558594 47.81378906 70.27117187 47.81445312 71.18359375 C47.85194761 76.85775917 48.28497754 82.37134323 49 88 C47.4252706 88.72726052 45.83975721 89.43120422 44.25 90.125 C43.36828125 90.51945312 42.4865625 90.91390625 41.578125 91.3203125 C39 92 39 92 37.06824112 91.25682259 C34.8280415 89.89550477 33.18043656 88.42648578 31.33001709 86.57052612 C30.61772949 85.86098785 29.90544189 85.15144958 29.17156982 84.42041016 C28.40048889 83.64213867 27.62940796 82.86386719 26.83496094 82.06201172 C26.0150769 81.24241974 25.19519287 80.42282776 24.35046387 79.57839966 C21.64033376 76.86687568 18.93735752 74.14833508 16.234375 71.4296875 C14.35722571 69.5488083 12.479688 67.66832513 10.60162354 65.7883606 C6.16365594 61.34417974 1.73081075 56.89492578 -2.70021415 52.44382393 C-7.74583409 47.37584024 -12.79714216 42.31354229 -17.84893465 37.25171256 C-28.23896097 26.84078771 -38.62183072 16.42274494 -49 6 C-48.67 5.34 -48.34 4.68 -48 4 C-46.78763672 4.41572266 -46.78763672 4.41572266 -45.55078125 4.83984375 C-44.48214844 5.20207031 -43.41351563 5.56429687 -42.3125 5.9375 C-41.25675781 6.29714844 -40.20101562 6.65679687 -39.11328125 7.02734375 C-29.45604995 10.04447122 -20.40605388 9.85014641 -11 6 C-8.82075179 4.80256046 -6.99506883 3.50846668 -5 2 C-2 0 -2 0 0 0 Z " fill="#007044" transform="translate(129,163)"/>
<path d="M0 0 C1.80377863 0.43133837 3.5933754 0.92224867 5.375 1.4375 C15.41682155 4.01019808 23.40277103 3.22800425 33.34765625 0.4609375 C34.22292969 0.30882812 35.09820312 0.15671875 36 0 C38 2 38 2 38.125 4.625 C38.08375 5.40875 38.0425 6.1925 38 7 C39.175625 7.2165625 39.175625 7.2165625 40.375 7.4375 C43 8 43 8 45 9 C45.607981 10.20731771 46.1630459 11.44162487 46.6875 12.6875 C50.20275839 19.91187294 55.77241159 23.27213398 63.08203125 26.140625 C65 27 65 27 67 29 C67.8563027 31.63233792 68.38929927 34.29546818 69 37 C68.32646484 36.97905273 67.65292969 36.95810547 66.95898438 36.93652344 C53.34755602 36.57002622 40.95976764 36.5031523 28 41 C26.40865234 41.54333984 26.40865234 41.54333984 24.78515625 42.09765625 C14.60883459 45.96125328 6.12575327 51.86040794 -1.75 59.3125 C-7.86307112 64.99765614 -12.20094364 67.03850691 -20.5 67.4375 C-31.50044257 67.01498643 -38.7918703 59.69032019 -46 52 C-53.59897949 42.85286139 -53.59897949 42.85286139 -55 37 C-55.66 36.67 -56.32 36.34 -57 36 C-56.34 34.35 -55.68 32.7 -55 31 C-53.6917422 32.96238669 -52.43837744 34.96278154 -51.25 37 C-48.29492424 40.94010101 -45.73965104 42.60159473 -40.82421875 43.31640625 C-34.56394559 43.64257174 -31.26499446 41.80223934 -26.51171875 37.72265625 C-24.50824828 35.43963176 -23.45696079 33.00574408 -22.1875 30.25 C-17.4883905 20.70242056 -11.86438649 15.78244833 -3 10 C-2.01 9.34 -1.02 8.68 0 8 C-0.66 7.34 -1.32 6.68 -2 6 C-1.44444444 1.44444444 -1.44444444 1.44444444 0 0 Z " fill="#C22026" transform="translate(234,180)"/>
<path d="M0 0 C0.36351562 0.80824219 0.72703125 1.61648438 1.1015625 2.44921875 C1.85566406 4.05216797 1.85566406 4.05216797 2.625 5.6875 C3.35589844 7.27111328 3.35589844 7.27111328 4.1015625 8.88671875 C5.84826618 12.20818941 5.84826618 12.20818941 9.2109375 14.296875 C12 17 12 17 12.42041016 19.10473633 C12.43837381 21.62657603 12.2635775 24.05469379 12 26.5625 C11.91298828 27.83770508 11.91298828 27.83770508 11.82421875 29.13867188 C11.4984561 33.21070502 11.18643176 36.4641878 9 40 C7.04402816 41.39712274 5.04563599 42.73779907 3 44 C1.17916036 45.82083964 1.69955292 48.48012117 1.625 50.9375 C1.68845014 59.1950826 4.18009215 64.76742271 9.5625 70.9375 C10.366875 71.618125 11.17125 72.29875 12 73 C12.5775 73.598125 13.155 74.19625 13.75 74.8125 C17.37850811 76.72754595 21.01466667 76.94331743 25 76 C27.63844898 73.17142929 27.63844898 73.17142929 29 70 C32.84748062 70.72611767 36.04085742 72.3904913 39.5 74.1875 C40.6240625 74.75855469 41.748125 75.32960938 42.90625 75.91796875 C47.23101015 78.82844496 49.36341935 82.09025806 51 87 C51.44101262 92.29215145 51.27439073 95.96277345 48.3125 100.45703125 C44.61235052 104.80690936 40.52054718 106.2660293 35 106.75 C21.14264692 106.19799006 7.80181201 94.27936758 -1.1875 84.75 C-16.12627892 67.14795517 -22.38957521 46.74860939 -21 24 C-19.60225205 7.5273671 -19.60225205 7.5273671 -15.37109375 3.41796875 C-10.13510852 0.08597815 -6.15937364 -0.64160142 0 0 Z " fill="#AC0000" transform="translate(141,297)"/>
<path d="M0 0 C1.2065625 1.2375 1.2065625 1.2375 2.4375 2.5 C5.43005903 5.41956979 6.85265295 6 11 6 C13.69519712 4.69972025 13.69519712 4.69972025 16 3 C16.99 2.67 17.98 2.34 19 2 C19.14695312 3.051875 19.14695312 3.051875 19.296875 4.125 C20.85645002 14.0202346 23.25408049 20.04932541 31 26.5546875 C32.93281424 27.95144779 34.83699632 29.00540456 37 30 C37 30.66 37 31.32 37 32 C35.2421875 33.2265625 35.2421875 33.2265625 32.875 34.625 C26.31922567 38.85786217 21.77035031 44.27483502 20 52 C19.58792228 54.66638523 19.27784475 57.31416739 19 60 C18.34 60 17.68 60 17 60 C17 59.34 17 58.68 17 58 C12.53757939 56.19378213 9.65541956 55.64216929 5 57 C1.69140528 58.95456777 1.69140528 58.95456777 -1 61 C-1.99 57.04 -2.98 53.08 -4 49 C-5.588125 50.093125 -7.17625 51.18625 -8.8125 52.3125 C-14.58345688 56.00531437 -21.00035306 59 -28 59 C-28.20753906 58.09121094 -28.41507812 57.18242187 -28.62890625 56.24609375 C-31.012316 46.52297865 -34.4928667 37.9256432 -39 29 C-38.01 29.33 -37.02 29.66 -36 30 C-35.84144531 29.2265625 -35.68289063 28.453125 -35.51953125 27.65625 C-33.31679233 17.82302876 -30.43022084 10.95074412 -22 5 C-15.9098869 1.29690157 -7.06826663 -2.9451111 0 0 Z " fill="#003B24" transform="translate(419,257)"/>
<path d="M0 0 C0.66 0 1.32 0 2 0 C2 0.66 2 1.32 2 2 C8.23799386 3.94636734 8.23799386 3.94636734 14.5 2.6875 C16.83989514 1.22359735 16.83989514 1.22359735 18 0 C28.08975249 -0.26502164 37.65895732 2.955291 45.5 9.3125 C51.3536684 14.97185575 53.89864495 21.66883675 55.0859375 29.66796875 C54.96517327 34.35032744 53.29974673 38.0745039 51.390625 42.25830078 C48.49042958 48.70890746 47.63018066 54.94849576 47 62 C46.67 62 46.34 62 46 62 C45.67 60.35 45.34 58.7 45 57 C44.33355469 56.86464844 43.66710937 56.72929687 42.98046875 56.58984375 C35.16290085 54.7639223 29.60464189 51.54605221 23 47 C22.01 50.96 21.02 54.92 20 59 C18.824375 58.154375 17.64875 57.30875 16.4375 56.4375 C13.16529671 54.37786849 12.21911661 53.99281585 8.1875 54.125 C6.10926389 54.69549619 4.04452394 55.31849202 2 56 C2 56.66 2 57.32 2 58 C1.34 58 0.68 58 0 58 C-0.09796875 57.29875 -0.1959375 56.5975 -0.296875 55.875 C-1.85645002 45.9797654 -4.25408049 39.95067459 -12 33.4453125 C-13.93281424 32.04855221 -15.83699632 30.99459544 -18 30 C-18 29.34 -18 28.68 -18 28 C-16.2421875 26.7734375 -16.2421875 26.7734375 -13.875 25.375 C-7.31922567 21.14213783 -2.77035031 15.72516498 -1 8 C-0.58792228 5.33361477 -0.27784475 2.68583261 0 0 Z " fill="#003B24" transform="translate(74,259)"/>
<path d="M0 0 C3.42536799 4.26934404 6.72819399 8.61280557 10 13 C5.51567272 18.37060295 0.77580851 23.36709613 -4.17675781 28.30615234 C-4.97421417 29.10536102 -5.77167053 29.9045697 -6.59329224 30.72799683 C-9.21073889 33.34981927 -11.83179575 35.96799736 -14.453125 38.5859375 C-16.27836485 40.41185128 -18.10345626 42.23791346 -19.92840576 44.06411743 C-23.74296507 47.88014763 -27.55927049 51.69441899 -31.37695312 55.50732422 C-35.79145423 59.91636487 -40.20231512 64.32902269 -44.61134076 68.74353826 C-48.86027664 72.9975526 -53.11201044 77.24875773 -57.36495209 81.49876785 C-59.17267082 83.30581813 -60.97964324 85.11361531 -62.78586578 86.9221611 C-65.30177823 89.44060087 -67.82085267 91.95583365 -70.34082031 94.47021484 C-71.09096405 95.22238281 -71.84110779 95.97455078 -72.61398315 96.74951172 C-73.64004166 97.77134048 -73.64004166 97.77134048 -74.68682861 98.81381226 C-75.28188831 99.40849493 -75.87694801 100.0031776 -76.49003983 100.61588097 C-78.6361224 102.58310751 -79.89365443 102.98582059 -82.8125 103.375 C-86 103 -86 103 -88.875 100.875 C-91 98 -91 98 -91.75 95.1875 C-89.9097006 87.36622755 -81.04834675 80.90855784 -75.49438477 75.38085938 C-74.67406265 74.56039124 -73.85374054 73.7399231 -73.00856018 72.89459229 C-70.32187481 70.20859836 -67.63167486 67.52615456 -64.94140625 64.84375 C-63.06789101 62.97210168 -61.19457426 61.10025679 -59.32151794 59.22814941 C-54.91092979 54.82065523 -50.4978014 50.41571386 -46.08372873 46.01170969 C-41.05385667 40.99305921 -36.0268625 35.97153021 -31.00009453 30.94977093 C-20.66990347 20.63000039 -10.33614681 10.31380529 0 0 Z " fill="#007245" transform="translate(131,369)"/>
<path d="M0 0 C5.41624551 4.52802934 10.47993237 9.30969387 15.48974609 14.28100586 C16.30846191 15.0899379 17.12717773 15.89886993 17.97070312 16.73231506 C20.65810942 19.38998832 23.34140352 22.05174944 26.0234375 24.71484375 C26.94250507 25.6273395 27.86157265 26.53983524 28.80849075 27.47998238 C32.66776098 31.31343132 36.52586033 35.14804222 40.3798275 38.98682308 C45.88380941 44.46884996 51.3976485 49.94053444 56.92521989 55.3987779 C61.29446559 59.71508206 65.64719467 64.04771044 69.99440384 68.38620186 C71.84170575 70.22493425 73.69414551 72.05851975 75.55176926 73.88682365 C78.14428532 76.44057345 80.71737872 79.01246562 83.28662109 81.58959961 C84.05749054 82.34046844 84.82835999 83.09133728 85.62258911 83.86495972 C88.9240547 87.21226974 90.78900432 89.24572021 92.07583618 93.84596252 C92 97 92 97 90.5 99.875 C87.11760626 102.75003468 85.45235908 103.29682394 81 103 C79.18035126 101.73690701 79.18035126 101.73690701 77.29284668 100.00450134 C76.24174965 99.04306623 76.24174965 99.04306623 75.16941833 98.06220818 C71.58164232 94.65173592 68.05614771 91.18668345 64.56445312 87.67797852 C63.76349213 86.87716354 62.96253113 86.07634857 62.13729858 85.25126648 C59.5162356 82.62951228 56.89872278 80.00424438 54.28125 77.37890625 C52.45444261 75.55023187 50.62741288 73.72177956 48.8001709 71.89353943 C44.49908488 67.58903814 40.20023089 63.28231966 35.90247488 58.97449392 C31.00474193 54.06553775 26.10412901 49.1594609 21.20328617 44.25360978 C11.13234308 34.17224733 1.06497597 24.0873197 -9 14 C-7.38880357 10.67883647 -5.51553868 7.76261 -3.375 4.75 C-2.74335938 3.85796875 -2.11171875 2.9659375 -1.4609375 2.046875 C-0.73777344 1.03367187 -0.73777344 1.03367187 0 0 Z " fill="#007245" transform="translate(380,369)"/>
<path d="M0 0 C0.66 0 1.32 0 2 0 C1.38722388 2.96175123 0.74627478 4.38058783 -1 7 C-0.24976563 7.09796875 0.50046875 7.1959375 1.2734375 7.296875 C11.03244709 8.72262451 19.2769421 10.63163852 26.4296875 17.73046875 C31.49687826 25.05394594 32.57930563 31.51977227 32.3125 40.3125 C32.29799805 41.77526367 32.29799805 41.77526367 32.28320312 43.26757812 C32.21885515 47.34388221 32.12723501 51.06233608 31 55 C31.680625 54.71125 32.36125 54.4225 33.0625 54.125 C41.81660353 50.7723646 49.75633786 50.30644109 59 51 C60.81298005 52.81298005 60.67555005 55.61181698 61.0625 58.0625 C61.32740234 59.71958984 61.32740234 59.71958984 61.59765625 61.41015625 C61.73042969 62.26480469 61.86320312 63.11945313 62 64 C61.20078125 63.82082031 60.4015625 63.64164062 59.578125 63.45703125 C49.04762953 61.41767473 40.82355667 62.218801 31.75 68.1875 C30.48722182 69.10771602 29.2318538 70.03878074 28 71 C27.84144531 70.38511719 27.68289063 69.77023437 27.51953125 69.13671875 C26.049198 64.00605017 26.049198 64.00605017 22.8125 59.875 C16.07334284 57.77837333 9.35061517 60.66262081 3 63 C3.03480469 62.16597656 3.06960938 61.33195312 3.10546875 60.47265625 C3.27964644 53.23184082 2.7316536 47.71531509 0 41 C3.96 39.35 7.92 37.7 12 36 C11.10796875 35.21496094 10.2159375 34.42992187 9.296875 33.62109375 C8.11414149 32.5603883 6.93187454 31.49916246 5.75 30.4375 C5.16347656 29.92380859 4.57695312 29.41011719 3.97265625 28.88085938 C-0.6149861 24.73136264 -4.28110254 20.59977329 -5.53125 14.33984375 C-5.4500367 8.09657113 -4.51387788 4.51387788 0 0 Z " fill="#003B24" transform="translate(306,408)"/>
<path d="M0 0 C2.54563057 0.96558401 3.94635204 1.93868805 5.75 4 C7.8278193 8.98676631 8.16956411 14.09948101 6.12109375 19.1796875 C2.06566514 26.05919346 -3.83170806 31.06536645 -10 36 C-6.04 37.65 -2.08 39.3 2 41 C1.01 42.65 0.02 44.3 -1 46 C-2.27912463 49.53769325 -2.09983361 53.01663856 -2.0625 56.75 C-2.05347656 57.92046875 -2.04445312 59.0909375 -2.03515625 60.296875 C-2.02355469 61.18890625 -2.01195312 62.0809375 -2 63 C-2.85722656 62.69964844 -3.71445313 62.39929688 -4.59765625 62.08984375 C-13.22316697 58.95800888 -13.22316697 58.95800888 -22 60 C-25.28747843 62.94739445 -25.95388575 66.81554299 -27 71 C-27.51046875 70.60167969 -28.0209375 70.20335937 -28.546875 69.79296875 C-36.95892352 63.66291212 -44.87203483 61.24452483 -55.25 62.8125 C-57.17141435 63.18460489 -59.09029125 63.57185562 -61 64 C-60.69240822 62.02006459 -60.3787932 60.04106401 -60.0625 58.0625 C-59.88847656 56.96035156 -59.71445313 55.85820312 -59.53515625 54.72265625 C-59 52 -59 52 -58 51 C-47.61148554 50.27077171 -38.70139427 50.81288571 -29 55 C-29.15936035 54.44006348 -29.3187207 53.88012695 -29.48291016 53.30322266 C-31.47772913 44.41789585 -31.85750497 31.38590838 -28 23.0625 C-23.68845212 16.3394084 -17.63285857 11.37744775 -10 9 C-5.68184112 8.19921467 -1.35591055 7.55677052 3 7 C2.505 6.401875 2.01 5.80375 1.5 5.1875 C0 3 0 3 0 0 Z " fill="#003B24" transform="translate(204,408)"/>
<path d="M0 0 C0.98613281 0.17208984 0.98613281 0.17208984 1.9921875 0.34765625 C2.65476562 0.43917969 3.31734375 0.53070313 4 0.625 C6.55966207 1.70134325 7.39827983 3.07503649 8.8671875 5.41015625 C9.23633099 7.57340622 9.23633099 7.57340622 9.22795105 9.95330811 C9.23207504 10.85912125 9.23619904 11.76493439 9.240448 12.69819641 C9.22966217 13.68434433 9.21887634 14.67049225 9.20776367 15.68652344 C9.20842079 17.25284767 9.20842079 17.25284767 9.20909119 18.85081482 C9.2070008 22.30307701 9.18365733 25.75485387 9.16015625 29.20703125 C9.1545612 31.60027806 9.15029067 33.99352831 9.14729309 36.38677979 C9.13583722 42.68659955 9.10636337 48.98621191 9.07318115 55.28594971 C9.04249644 61.7140421 9.02879116 68.14216799 9.01367188 74.5703125 C8.98149461 87.18368489 8.93028906 99.79690332 8.8671875 112.41015625 C3.5871875 112.41015625 -1.6928125 112.41015625 -7.1328125 112.41015625 C-7.2486088 98.54553228 -7.33747885 84.68102315 -7.39187336 70.81601429 C-7.41797867 64.37806443 -7.45339502 57.94044514 -7.51000977 51.50268555 C-7.56429434 45.29109633 -7.59422599 39.07982529 -7.60719872 32.8680172 C-7.61644484 30.49688393 -7.63450021 28.12576828 -7.66146278 25.75477028 C-7.6977043 22.43614553 -7.70275968 19.11883929 -7.70043945 15.80004883 C-7.71841583 14.81749619 -7.73639221 13.83494354 -7.75491333 12.82261658 C-7.71949934 8.14843637 -7.65801169 6.09311303 -4.7306366 2.28642273 C-2.1328125 0.41015625 -2.1328125 0.41015625 0 0 Z " fill="#007145" transform="translate(255.1328125,39.58984375)"/>
<path d="M0 0 C8.07609799 3.75223428 11.75787801 11.32078888 15.4375 19 C16.45826968 24.44410497 16.33343065 29.84599664 13.375 34.625 C9.97108043 36.59569028 7.88610884 36.52693001 4 36 C-3.45771976 32.72907028 -8.02948049 27.64535891 -11.375 20.25 C-13.33912451 14.8527839 -13.8928279 9.68590402 -13 4 C-10.25581636 -1.13043028 -5.23963914 -1.10489919 0 0 Z " fill="#444851" transform="translate(355,282)"/>
<path d="M0 0 C5.65492949 3.41393719 9.96780633 7.84197013 12.56640625 13.9609375 C13.53481204 19.00565606 13.39343738 22.61011998 10.69140625 27.0234375 C6.84278777 30.53247199 3.52504277 30.41482258 -1.5390625 30.375 C-7.45372342 29.52890815 -10.94944142 25.6013164 -14.80859375 21.3359375 C-18.67765678 15.68115307 -19.54402395 10.78503583 -18.43359375 3.9609375 C-13.80403575 -2.25241666 -7.0400931 -3.00588245 0 0 Z " fill="#F4F6F9" transform="translate(160.43359375,287.0390625)"/>
<path d="M0 0 C6.20460266 0.9306904 10.1235141 3.9360141 14.5 8.3125 C19.63700088 15.73261238 22.12536367 22.42718973 20.75 31.5625 C19.3125 34.75 19.3125 34.75 16.75 36.5625 C12.73392773 37.57243566 9.35813848 37.31257548 5.59765625 35.55859375 C-0.76198825 31.27407317 -4.84619702 24.77390893 -7.25 17.5625 C-7.42032265 15.4209021 -7.51617837 13.27286073 -7.5625 11.125 C-7.61857422 9.42537109 -7.61857422 9.42537109 -7.67578125 7.69140625 C-7.25 4.5625 -7.25 4.5625 -5.43359375 2.1875 C-3.25 0.5625 -3.25 0.5625 0 0 Z " fill="#2A2C31" transform="translate(149.25,337.4375)"/>
<path d="M0 0 C6.42773082 2.54498987 10.32376497 6.36426559 13.81640625 12.265625 C15.663976 16.70977926 15.57828852 21.81242874 13.984375 26.3359375 C12.70938397 28.32662982 11.77585148 29.22931199 9.68359375 30.3515625 C4.64987203 31.40597193 -0.05300647 31.45949486 -4.734375 29.16796875 C-9.97744003 25.38076418 -14.58203694 20.71091662 -16.31640625 14.3515625 C-16.88273356 9.6493297 -16.99747025 6.4412649 -14.44140625 2.3515625 C-10.20707939 -1.63368631 -5.3957784 -1.51045399 0 0 Z " fill="#F5F7FA" transform="translate(294.31640625,174.6484375)"/>
<path d="M0 0 C8.18384418 2.7617307 13.15853852 7.31707704 17 15 C17.5933268 19.71270998 17.91105722 24.50528919 15.25 28.625 C12.55461785 31.312703 9.90612417 31.53374626 6.1875 31.75 C-1.53291851 31.3606554 -5.37871454 27.89721024 -10.375 22.375 C-14.23754027 16.72974884 -15.12904083 11.81456784 -14 5 C-10.98837888 -0.18175986 -5.53890569 -1.1938984 0 0 Z " fill="#F5F7FA" transform="translate(300,326)"/>
<path d="M0 0 C1.12559326 0.00519653 1.12559326 0.00519653 2.27392578 0.01049805 C8.45110507 0.13163233 14.4720552 0.6135633 19.4140625 4.76171875 C20.6875 6.3125 20.6875 6.3125 20.6875 8.8125 C19.31297267 12.24881833 18.07331432 12.83120623 14.6875 14.3125 C4.77307767 17.49785657 -5.69576734 17.47803661 -15.3125 13.3125 C-16.67624174 12.35438401 -18.01942727 11.36404206 -19.3125 10.3125 C-18.99401178 7.36648395 -18.75391246 5.75391246 -16.625 3.625 C-11.24624444 0.57219279 -6.09771322 -0.04542437 0 0 Z " fill="#424750" transform="translate(251.3125,167.6875)"/>
<path d="M0 0 C2.75903437 1.37951718 2.83859851 2.82240663 3.875 5.6875 C5.49346287 9.94052837 7.4037058 13.29100828 10 17 C10 17.66 10 18.32 10 19 C9.33613281 19.02578125 8.67226562 19.0515625 7.98828125 19.078125 C3.87750132 19.3421751 0.66642782 19.67358637 -3.0625 21.5 C-5.84899269 25.09547444 -5.89539155 28.54938593 -6 33 C-6.33 32.01 -6.66 31.02 -7 30 C-13.41923331 30.29112169 -17.62100206 31.45215029 -23 35 C-20.80572153 21.39054255 -10.57736769 8.34812595 0 0 Z " fill="#901C1E" transform="translate(148,267)"/>
<path d="M0 0 C5.34884386 0.17347602 8.30967265 2.45549162 12.0703125 6.17578125 C18.47603375 13.07734285 20.90109233 19.15412211 20.67578125 28.6171875 C20.25 31.375 20.25 31.375 17.9375 34.625 C15.25 36.375 15.25 36.375 12.25 36.375 C12.16363281 35.68535156 12.07726562 34.99570312 11.98828125 34.28515625 C10.73444436 25.89940313 8.40779616 19.67633235 2.5 13.5 C-1.41804682 10.93820016 -5.26009107 9.60224177 -9.75 8.375 C-9.09 8.045 -8.43 7.715 -7.75 7.375 C-7.06867549 5.71427151 -6.40257873 4.047233 -5.75 2.375 C-3.75 0.375 -3.75 0.375 0 0 Z " fill="#6E1415" transform="translate(157.75,329.625)"/>
<path d="M0 0 C0.08636719 0.76183594 0.17273438 1.52367187 0.26171875 2.30859375 C1.58094119 12.00306323 4.24614058 19.61380892 12.0859375 25.84765625 C15.26900633 27.7639936 18.35664486 28.36081489 22 29 C21.34 29.33 20.68 29.66 20 30 C19.690625 30.804375 19.38125 31.60875 19.0625 32.4375 C18 35 18 35 15 37 C10.9913475 37.45380972 8.62831405 37.31415703 5 35.5 C-1.65449664 29.95458613 -7.28898543 23.9916958 -8.34765625 15.0703125 C-8.7331887 6.98401642 -8.7331887 6.98401642 -5.625 2.8125 C-1.55172414 0 -1.55172414 0 0 0 Z " fill="#C12026" transform="translate(342,289)"/>
<path d="M0 0 C7.33319387 8.80391799 8.36281173 23.93424218 8 35 C7.05898438 34.45730469 6.11796875 33.91460937 5.1484375 33.35546875 C3.89067537 32.63272484 2.63286003 31.91007352 1.375 31.1875 C0.75753906 30.83107422 0.14007813 30.47464844 -0.49609375 30.10742188 C-4.27265506 27.94086828 -8.08447772 25.9095701 -12 24 C-11.82526621 18.75798645 -11.82526621 18.75798645 -11 16 C-8.1875 13.875 -8.1875 13.875 -5 12 C-1.83689542 8.0674916 -0.478329 5.02245446 0 0 Z " fill="#BF2126" transform="translate(328,197)"/>
<path d="M0 0 C5.8622515 0.68967665 9.56896535 3.5348931 13.625 7.6875 C18.52966221 13.98895921 20.57680688 20.06890543 20 28 C14.00792084 27.70039604 10.05536755 25.24848029 6 21 C1.38857227 14.1219383 -0.825762 8.25761999 0 0 Z " fill="#121214" transform="translate(150,338)"/>
<path d="M0 0 C5.99207916 0.29960396 9.94463245 2.75151971 14 7 C18.61142773 13.8780617 20.825762 19.74238001 20 28 C14.18645216 28 11.08759541 25.04341859 7.0546875 21.26171875 C1.31537947 14.94411542 -0.16069673 8.35622997 0 0 Z " fill="#2B2E33" transform="translate(342,290)"/>
<path d="M0 0 C1.80377863 0.43133837 3.5933754 0.92224867 5.375 1.4375 C15.41682155 4.01019808 23.40277103 3.22800425 33.34765625 0.4609375 C34.22292969 0.30882812 35.09820312 0.15671875 36 0 C38 2 38 2 38.125 4.375 C36.58312903 7.97269894 34.47522843 8.64214808 31.0078125 10.203125 C22.87736355 13.42999579 12.28498992 13.33881741 4.125 10.125 C1.51892046 8.93238733 0.04222416 8.04222416 -2 6 C-1.44444444 1.44444444 -1.44444444 1.44444444 0 0 Z " fill="#AE0102" transform="translate(234,180)"/>
<path d="M0 0 C1.04510742 0.00870117 1.04510742 0.00870117 2.11132812 0.01757812 C7.66369588 0.15703294 12.051725 1.20073928 17.125 3.375 C17.125 4.035 17.125 4.695 17.125 5.375 C5.69070777 9.09059206 -3.5167548 9.51423036 -14.875 5.375 C-14.875 4.715 -14.875 4.055 -14.875 3.375 C-9.80969686 0.88839664 -5.68544224 -0.11513432 0 0 Z " fill="#2D2E33" transform="translate(250.875,175.625)"/>
<path d="M0 0 C2.92413196 1.82758248 5.43381139 3.86762277 7 7 C7.26140874 10.07155269 7.43904748 12.199384 5.9375 14.9375 C4 16 4 16 0.625 16.0625 C-4.0051202 14.7053958 -5.41752806 13.02561803 -8 9 C-9 5.8125 -9 5.8125 -9 3 C-6.88373622 -0.73458314 -3.97024891 -0.62278414 0 0 Z " fill="#F5F2F5" transform="translate(326,358)"/>
<path d="M0 0 C4.03889623 0.60964471 5.99685453 1.89364801 8.953125 4.640625 C10.53780793 6.80817981 10.84024232 8.08513944 10.9375 10.75 C10.73125 11.9875 10.525 13.225 10.3125 14.5 C7.3125 16.5 7.3125 16.5 3.9375 16.5 C-0.75237967 15.20624009 -2.16890859 13.6213314 -4.6875 9.5 C-5.125 5.75 -5.125 5.75 -4.6875 2.5 C-2.6875 0.5 -2.6875 0.5 0 0 Z " fill="#F4F2F5" transform="translate(306.6875,205.5)"/>
<path d="M0 0 C5.75 -0.125 5.75 -0.125 8 1 C7.67 3.31 7.34 5.62 7 8 C6.6596875 7.13375 6.6596875 7.13375 6.3125 6.25 C4.66961977 3.4336339 2.60466773 1.91922886 0 0 Z " fill="#E65360" transform="translate(295,205)"/>
</svg>
